<?xml version="1.0" encoding="UTF-8"?>
<svg enable-background="new 0 0 327.6 105.12" viewBox="0 0 327.6 105.12" xmlns="http://www.w3.org/2000/svg">
 <path d="m166.8,18.24c.661.833-1.279,1.112-1.2,2.16-.703-.876.896-1.495 1.2-2.16z" fill-rule="evenodd"/>
 <path d="m64.8,18.48c.315.085.377.423.72.48-1.313,2.047-3.02,3.7-4.8,5.28 2.182-.218 3.022-1.777 5.04-2.16-.211,3.162-4.769,4.442-6.48,6.96 2.285-.96 4.5-2.159 6.72-3.36 .595-.322 1.329-1.39 2.16-.72-.439,1.703-2.379,2.252-3.6,3.12-1.289.916-2.485,1.899-3.6,2.88 3.021-.979 5.281-2.719 8.4-3.6-.66,2.614-3.95,2.941-5.52,4.8 1.467-.156 3.603-1.003 5.52-1.92 .944-.452 1.667-1.633 2.64-.96-1.178,2.662-4.394,3.286-6.24,5.28 2.667-.787 5.202-2.94 7.68-3.12-.93,2.43-2.903,3.817-4.56,5.52-.433-1.833 2.254-2.517 2.88-4.08-1.709-.44-2.936,1.215-4.32,1.92-1.528.779-3.179,1.361-4.8,1.92 .375-1.649 2.132-2.538 3.36-3.36 1.344-.9 2.893-1.393 3.84-2.64-3.519.322-6.366,3.394-10.32,4.08 .867-2.253 3.893-2.347 5.04-4.32 .846-.274 1.628-.611 2.16-1.2-3.166.204-6.345,3.724-9.6,3.84 1.812-2.588 5.256-3.544 7.44-5.76-2.37.031-4.18,2.699-7.2,2.88 .359-1.76 2.129-2.65 3.36-3.6 1.276-.984 2.719-1.772 3.6-3.12-2.447.275-4.963,2.556-7.2,3.84-.347-1.917 1.563-2.374 2.4-3.12 .975-.87 1.724-1.814 2.4-2.88 1.371-.549 1.967-1.873 2.88-2.88z" fill-rule="evenodd"/>
 <path d="m168.48,20.64c-.141.5-.504.776-.72,1.2-.502-.213.077-1.34.72-1.2z" fill-rule="evenodd"/>
 <path d="m168.96,21.12c.651.218-.245.841-.24,1.2-.726-.293.17-.916.24-1.2z" fill-rule="evenodd"/>
 <path d="m77.28,31.92c-.566,1.834-2.072,2.729-2.88,4.32 2.845-.529 4.083-3.898 7.2-3.36-.366,1.235-1.482,1.718-2.16,2.64 1.771.542 3.41-2.313 5.52-1.44 .098,1.217-.838,1.402-1.2,2.16 1.837-.041 2.985-1.923 4.8-1.2 .676.747-.478,1.118-.48,1.92 1.391.01 2.121-1.304 3.36-.72-.117,2.286-1.984,3.882-3.36,5.04-1.442,1.213-3.267,2.597-5.28,3.12 1.553-3.407 6.514-3.406 7.68-7.2-3.848-.399-6.278,3.951-9.36,4.32 1.141-2.779 5.421-2.418 6.24-5.52-3.638.043-6.247,3.192-9.6,4.32-.003-1.213 1.752-1.638 2.88-2.4s2.622-1.5 2.88-2.88c-1.514-.203-2.944.939-4.32,1.68-1.451.781-2.746,1.981-4.08,1.92 1.247-1.954 3.835-2.565 4.8-4.8-2.944.896-4.337,3.342-7.2,4.32 .259-2.161 2.915-3.95 3.84-6.24h.72z" fill-rule="evenodd"/>
 <path d="m78.96,81.84c-3.682-.4-4.815,3.824-6.96,5.761-.104-2.265 1.518-2.802 2.16-4.32-1.569.271-2.772.907-4.08,1.439 .998,1.243 1.082,3.213.48,4.32-3.914,1.671-8.062.42-12.72.96-.731.011-.934-.507-1.44-.72-1.363.907-2.056-.368-3.36.479-1.189-1.42-4.403-.073-5.04-2.399 .576-.704 1.691-.869 2.64-1.2 .131-.349-.28-1.24.24-1.2-1.026-.953-2.619-1.893-4.32-2.88-2.119-1.23-5.405-2.028-5.76-4.56-.313-2.234 1.924-4.116 1.2-6.721-1.625,1.255-3.524,2.235-4.8,3.841 .25,2.264-.236,8.942 2.64,11.279 .125.102 1.302.684 1.44.721 1.142.305 2.41-.509 3.84-.24 2.011.377 3.675,3.095 5.04,4.8 .717.896 2.187,2.106.96,3.12-2.172-1.988-4.109-4.211-6-6.48-8.386.915-10.702-5.143-9.6-12.96 .624-.438.703-1.151 1.2-1.68 2.77-2.944 6.987-3.606 7.92-8.88 .329-1.861.073-3.967 0-6-.166-4.603.516-8.721 2.16-12 3.691-3.669 6.635-8.085 8.4-13.68 1.372,1.944-.616,4.437-.96,6.24 9.949-1.701 21.024.822 26.64,5.76 .051.851-1.125.474-.96,1.44 .132.668 1.937-.337 1.44.96 .821.102.722-.719 1.2-.96 2.179,1.127 3.967,2.913 6.48,4.08 1.37.636 2.785.701 4.32.96 1.194.202 3.097.157 3.84,1.44-2.866.735-3.552,3.648-4.56,6.24 1.44.041 1.635-3.136 2.88-4.08 .98-.072.128.501.24.96 1.08-.386 1.518-1.557 1.92-2.399 .537-1.125.514-2.36.96-3.36 1.081-2.422 3.898-3.492 4.8-5.76-1.997.083-2.094,2.066-4.08,2.16-.297-1.189.967-2.271 1.68-3.12 .827-.986 1.656-1.892 2.4-2.88 1.335-1.773 2.516-4.987 5.52-4.8-.466,2.254-2.333,3.106-2.88,5.28 .34.402 1.011-.896 2.16-.48 .082,2.502-3.053,3.812-3.84,6.24-1.957.923-3.445,2.315-4.8,3.84 .038,3.238-1.211,5.188-3.12,6.479 .118,1.003.896,1.345 1.2,2.16-.37,5.022 2.631,12.685 3.12,17.76 .303,3.149-1.43,5.04-1.2,8.16 .204.704.604-.312 1.2,0-.185,1.385.047,2.353 1.2,2.4-.229,2.108-.09,5.157 2.4,5.76 1.621.393 3.488-.56 5.28-.96 1.076-.116 1.072.849 1.92.96 .53-.19.312-1.128.96-1.2 1.312.8 3.05.631 4.08,1.2-.494,1.507-3.268.732-4.56,1.44-.754-.366-1.786-.455-2.4-.96-3.662.804-7.869.698-9.36-1.921-1.081.337-1.928,1.429-3.6,1.44-.414.003-1.11-.542-1.92-.72-2.763-.606-5.534.643-5.76-2.16-2.811-.403-2.902,3.062-5.28,1.68 .065-.982.974-1.265.48-2.16-1.476.129-2.343,2.132-3.84,1.44-1.033.126.745-1.299-.24-1.92-1.258.021-1.56,1-2.4,1.439-.944-.255-1.461-.938-1.68-1.92-.749-.169-1.033,1.342-1.68.48 .11-1.57 2.328-1.032 2.16-2.88-1.62.061-2.074,1.285-3.36,1.68-.279.039-.427-.053-.48-.24 2.085-1.992 5.227-2.932 6.24-5.998zm20.4,6.96c-.621-1.614-1.676-1.848-1.92-3.6-.382-2.753 2.011-5.569.96-7.68-.541,1.705-2.511,4.171-2.4,6.239 .054,1.001.904,1.264.72,2.16-3.312-.435-1.914-2.348-1.68-4.8 .161-1.686-.337-3.965-.48-6.479-.119-2.084.111-4.332-.24-6-1.033-4.909-3.804-7.324-3.12-11.761 .843-.837 1.291-2.069 1.68-3.36 .745.379 1.552.762 1.68-.48-3.471.184-6.822.335-9.36-1.2-3.762-2.275-6.755-5.125-10.32-7.2-2.536-1.476-5.076-2.299-8.16-3.12-3.575-.952-7.34-1.772-12.48-1.44-.672,1.961-3.991,3.414-4.08,6.24-.012.391.467,1.464.72,2.4 .719,2.663.964,4.204 1.44,6.24 .216.924.621,2.014.72,2.88 .556,4.877-2.188,9.667-1.68,13.92 .484,4.05 3.41,6.036 6,7.681 2.653,1.684 5.696,2.701 10.08,2.16 .569-.711 1.371-1.189 1.68-2.16-2.139.101-4.019.46-5.28,1.439 .072-.472-.324-.476-.48-.72 1.102-1.059 2.787-1.533 3.36-3.12-2.179.141-3.443,1.197-5.04,1.92 .797-1.201-.64-.132-.96-.72 1.393-1.167 3.939-1.181 4.56-3.12-2.125.035-3.272,1.048-4.56,1.92-.261-.61 1.124-.931 0-.96-1.651-.206-3.096,1.058-4.32.48 1.569-1.072 4.286-.995 4.8-3.12-2.492.309-5.105,1.772-7.44,1.439 3.054-2.065 9.153-1.086 11.04-4.319-4.127.034-7.715,1.884-11.28,1.68 4.838-2.361 12.797-1.603 16.8-4.8-3.287.297-6.572.409-9.6.96-2.489.452-4.754,1.525-6.96,1.439 4.423-2.145 11.729-2.955 18.24-3.359 1.214-.076 2.646-.242 3.84-.24 .976.002 3.875-.046 4.32.96-3.621.167-9.942-.797-11.52,2.16 2.485-.411 5.885-.496 8.88-.48 1.293.007 3.732-.646 3.84.96-4.71-.153-10.759-1.053-12.96,1.92 3.461-.404 7.432-.887 11.04-.479 .888.1 2.84-.56 2.88.96-2.53.087-7.674-.89-10.56-.24-.993.224-2.926,1.34-2.16,2.16 1.504-.515 3.496-.536 4.8-.48 3.167.136 8.857-1.254 10.08.721-2.065.297-8.406-1.553-9.36,1.2 1.731.211 2.709-.331 3.84-.721 1.079,1.082 4.326-.006 5.28,1.2-1.834.508-7.546-1.067-6.96,1.68 1.958.278 2.29-1.07 3.84-1.199 .021.654-.4.482 0,.96 1.234.286 3.72-.681 3.84.72-1.082-.042-2.197-.117-2.16.96 .32.684 2.058-.781 2.16.479-.717.516-1.898-.323-2.88.24-.095.413.356.615 0,.721-1.217.543-1.661,1.858-2.16,3.119 1.859-.156 2.763-1.905 4.32-2.399 .333-.106.835.294 1.2.24 .814-.122 1.824-1.281 2.64-.48-.852,1.309-4.045.274-3.84,2.64 2.441-.013 4.684-2.601 6.72-1.439-.712,1.208-3.929-.089-3.36,2.399 1.16.537 3.401-2.031 4.56-.72-.491.709-2.216.185-1.68,1.92 .834.686 1.603-.564 2.4,0-.121.759-1.371.39-1.68.96 .951.521 1.872-.768 3.36-.479-.163.578-1.907.953-.72,1.439 1.095-.505 2.131-1.068 3.12-1.68 1.614.265.036,2.818 2.4,2.639zm-51.84-34.56c.575-.865.797-2.083 1.68-2.64-.175-.545.432-1.873-.48-1.68-.319,1.303-2.512,2.947-1.2,4.32zm0,3.361c.19-1.101 2.819-3.723 1.68-4.32-.112,1.657-3.077,2.719-1.68,4.32zm1.92-1.441c-.428,1.734-2.678,2.919-2.16,4.8 .895-1.664 2.375-2.744 2.88-4.8h-.72zm44.4,5.28c.414-1.347 1.477-2.043 1.44-3.84-1.302.324-2.964,2.944-1.44,3.84zm-47.52,3.121c1.203-.224 1.792-1.552 2.4-2.4 .618-.863 1.556-1.865 1.68-3.12-.053-.187-.201-.279-.48-.24-.851,2.268-2.887,3.352-3.6,5.76zm48-1.201c.998-.442 1.116-1.765 1.44-2.88-.307-.014-.333-.308-.72-.24-.393.807-1.435,1.975-.72,3.12zm1.2,2.64c.462-.908 1.569-2.87.48-3.84-.64.862-1.958,2.996-.48,3.84zm-46.8-1.68c.747-.07 2.532-1.334 1.2-1.92-.361.679-1.058,1.023-1.2,1.92zm-2.64,3.84c-.735-.106-2.112,1.456-1.68,2.4 .79-2.185 4.163-3.752 3.6-5.761-.496,1.264-1.937,1.585-1.92,3.361zm-3.12,8.401c1.81-3.79 4.583-6.617 6.72-10.08-.027-.293-.072-.568-.48-.48-1.959,3.48-6.152,6.007-6.24,10.56zm53.04-7.92c.879.197 1.142-2.37.24-2.4-.389.473-.773,1.746-.24,2.4zm.24,1.679c.291.429.043,1.396.48,1.68-.111-.859 1.408-2.282.24-2.64-.101.459-.087,1.034-.72.96zm-32.4,1.92c2.011.3 4.298-1.119 5.52-2.4-2.708-.068-4.09,1.189-5.52,2.4zm-18,2.16c-.913,1.282-2.183,2.499-2.4,3.84 .895.641 1.259-.676 1.68-1.2 1.501-1.869 3.049-4.228 3.84-6.479-.053-.188-.201-.279-.48-.24-.713,1.377-1.68,2.731-2.64,4.079zm50.64,1.44c1.149-.729 2.08-2.828 1.68-4.319-.053-.188-.201-.279-.48-.24-.407,1.457-1.63,3.023-1.2,4.559zm-32.4-1.199c2.352-.129 4.22-.741 5.04-2.4-2.488-.009-3.786,1.173-5.04,2.4zm-3.6.479c2.418.258 3.323-.997 4.32-2.16-2.367-.207-3.32,1-4.32,2.16zm-14.88,4.56c1.816-1.463 2.994-3.565 4.08-5.76-.307-.013-.333-.308-.72-.24-.699,2.278-3.592,3.585-3.36,6zm24.96-3.84c2.362.282 3.464-.696 4.56-1.68-2.249-.169-3.838.321-4.56,1.68zm-5.52.96c2.382-.097 4.133-.827 5.28-2.159-2.681-.203-4.269.69-5.28,2.159zm31.68,2.16c.835-.55 2.509-3.464 1.44-4.08-.558,1.383-1.103,2.104-1.44,4.08zm-49.44,1.681c1.605-.875 2.229-2.731 3.36-4.08-.027-.293-.072-.568-.48-.48-.888,1.591-2.466,2.493-2.88,4.56zm24.96-2.401c2.013-.146 3.841-.479 4.32-2.16-2.475-.314-3.694.626-4.32,2.16zm-6,.96c2.765-.115 4.778-.981 6-2.64-2.496-.549-5.015.885-6,2.64zm-17.04,2.401c1.341-.899 2.289-2.191 2.88-3.841-.307-.013-.333-.308-.72-.239-.367,1.587-2.701,2.37-2.16,4.08zm30.24-1.921c1.145-.375 2.634-.405 2.88-1.68-1.851-.516-3.955.816-2.88,1.68zm-5.04.48c1.89-.11 3.646-.354 4.08-1.92-2.129-.129-3.538.462-4.08,1.92zm-5.28.96c2.1-.301 4.292-.508 4.8-2.4-2.367.033-4.219.581-4.8,2.4zm-18.48,1.2c.801-.001.819.78 1.68.72 .158-1.643 2.446-2.298 1.68-4.08-1.735.505-2.539,1.941-3.36,3.36zm26.64-.96c1.338-.102 2.799-.081 2.88-1.44-1.612-.171-2.393.486-2.88,1.44zm-23.76,2.64c1.563-.437 2.06-1.94 3.12-2.88-1.05-1.584-3.41,1.659-3.12,2.88zm17.76-.479c1.843-.798 4.307-.974 5.04-2.88-2.826-.187-4.223,1.055-5.04,2.88zm-2.88-1.201c.734.306.706,1.374 1.44,1.68 .339-1.101 1.333-1.546 1.68-2.64-1.047.313-2.582.138-3.12.96zm-11.04-.719c-.151,1.688-2.032,1.647-2.16,3.359 1.642.25 2.879-1.68 3.6-3.12-.565.006-.707-.413-1.44-.239zm2.16.719c-.583,1.355-3.183,2.647-2.16,4.08 1.643-.917 2.525-2.596 3.84-3.84-.563-.077-.901-.379-1.68-.24zm2.88,0c-1.47,1.97-4.051,2.828-4.56,5.76 1.97-1.47 3.316-3.563 5.04-5.28-.027-.292-.072-.569-.48-.48zm1.2,1.92c.211-.445 1.132-1.406 1.44-.96-.785,2.095-2.619,3.142-3.36,5.28 1.212.18 1.446-1.254 1.92-1.92 .821-1.156 1.431-2.505 2.88-2.641-.355,2.045-2.293,2.507-2.64,4.561 .789.214 1.701-.184 2.64-.24 1.342-.081 3.11.463 3.84-.48-1.395-.525-2.149-1.69-3.12-2.64 .252.607-.81,1.063-.96.479 .043-.677 1.141-.299.96-1.199-.018-2.396-4.302-2.83-3.6-.24zm15.36,2.16c.875-.81 3.588-1.048 2.64-2.88-.954.73-3.547,1.087-2.64,2.88zm-19.44,2.4c1.426-.896 2.901-3.016 3.12-4.319-.913,1.566-2.841,2.118-3.12,4.319zm24.24-4.08c-.114.69-.914,1.416-.48,1.921 1.106-.174 1.946-.614 1.92-1.921-.502-.523-.685.12-1.44,0zm-28.8,2.64c-.618-1.223-2.044-1.636-3.36-2.16-.522,1.559 1.578,2.15 3.36,2.16zm32.4-.24h.96c1.279-2.11-2.024-1.853-.96,0zm-9.84,2.16c1.599-.481 3.289-.872 3.36-2.88-1.772.309-3.39.77-3.36,2.88zm4.56.241c1.259-.341 2.545-.655 2.64-2.16-1.216-.501-2.681.621-2.64,2.16zm4.8-.241c1.068.027 1.875-.205 1.68-1.44-1.155-.115-1.962.118-1.68,1.44z" fill-rule="evenodd"/>
 <path d="m31.68,36.24c.279-.039.427.053.48.24-.083,1.356-1.337,1.543-1.68,2.64 .204.704.604-.312 1.2,0 .057,1.897-1.311,2.369-1.68,3.84 1.385.265 1.298-.941 2.64-.72-.062,1.538-1.18,2.02-1.44,3.36 .334.754 1.185-.33 1.44.24-.122,1.482-.128,2.848 1.2,2.88 .523.502-.12.685 0,1.44 1.074.827 1.506,2.727 2.4,4.56 .333.685 1.149,1.229 1.44,1.921 .16.381.085,1.327.24,1.92 .181.693.689,1.311.72,1.68 .132,1.58-.334,4.099-1.92,5.04 2.983-5.367-1.446-10.542-3.84-14.16-.021-.341-.04-.68.24-.72-.287-.594-.822-.938-1.44-1.2v-1.68c-.033-.767-1.071-.529-1.44-.96-.055-1.095.404-1.676.72-2.4-.164-.875-.956.051-1.92-.24-.141-1.581 1.036-1.844 1.2-3.12 .171-.652-1.132.171-.96-.48 .272-1.889 1.84-2.481 2.4-4.081z" fill-rule="evenodd"/>
 <path d="m95.28,36.72c.075,1.355-1.027,1.534-1.44,2.4 1.228.134 1.667-.786 2.64-.24-.625,2.589-2.465,5.24-4.32,6.72-.837.668-2.044,1.353-3.12,1.2-.115-1.396 1.566-.994 2.16-1.68 1.625-1.495 3.352-2.889 4.08-5.28-3.818-.057-5.565,4.035-9.12,5.04 2.256-2.704 5.558-4.362 7.92-6.96 .144-.427-.704-.997 0-1.2 .316-.308.885-.308 1.2,0z" fill-rule="evenodd"/>
 <path d="m117.36,50.16c-4.167,2.072-6.758,5.722-9.84,8.88-.135,1.096.425,1.495.24,2.64-.369.512-1.398.362-1.68.961-.364,5.108 2.122,10.24 1.44,15.119-.337,2.412-2.601,4.752-.24,6.96 2.248,1.119 4.446-1.357 6.48-.96 1.054.206 1.524,1.714 2.16,2.4 1.539,1.66 3.98,3.112 3.84,4.8-.086,1.038-.926,1.938-2.16,1.92-1.307-.02-5.184-4.173-5.04-5.279 2.14.82 3.298,2.621 5.04,3.84 .856-2.489-2.047-3.209-3.36-4.32-.519-.602-.757-1.483-1.44-1.92-3.129,1.123-8.013,1.983-8.4-2.16-.125-1.339 1.115-3.844 1.2-6.479 .141-4.349-1.588-9.365-1.2-12.48 .102-.812.726-1.676.96-2.64 .143-.586-.107-1.185 0-1.44 .345-.82 1.132-1.437 1.44-1.92 .053-3.387 2.933-3.947 4.08-6.24 1.295-.781 3.251-.649 4.32-2.88 .824-1.719-.363-5.259 1.68-5.28 2.103-.023 1.43,5.056.48,6.478z" fill-rule="evenodd"/>
 <path d="m66,55.2c-1.059.287-3.273.476-4.08.24 .261-.551 1.697-.394 2.64-.48 .547-.05 1.525-.958 1.44.24z" fill-rule="evenodd"/>
 <path d="m67.2,58.08c-.625.831-2.414.959-3.84,1.2-1.479.25-3.184.688-3.84.24-.015-.651.669-.657.96-.721 1.927-.417 4.296-.575 6.72-.719z" fill-rule="evenodd"/>
 <path d="m77.52,59.76c-.322,1.123-3.333.82-4.32.48 .529-1.07 3.004-.196 4.32-.48z" fill-rule="evenodd"/>
 <path d="m66.96,60.72c-.891,1.041-3.108.751-4.8.96-1.445.18-2.697.678-3.6.48 .199-.694 1.208-.815 1.92-.96 1.983-.401 4.811-.582 6.48-.48z" fill-rule="evenodd"/>
 <path d="m78.96,61.44c.466-.096.351,1.093-.24.72v-.48c.204.045.226-.093.24-.24z" fill-rule="evenodd"/>
 <path d="m211.92,62.16c.385-.175 2.425,4.188 2.399,4.8-.043,1.028-.851,2.101-1.68,2.16-2.762.2-2.079-5.083-.719-6.96zm.96,6c.373-.876.242-2.404-.721-2.64-.09,1.093-.553,2.42.721,2.64z" fill-rule="evenodd"/>
 <path d="m64.8,62.88c-.085.999-1.632.813-2.4.96-1.522.29-3.128.543-5.28.48 2.196-.843 4.928-1.152 7.68-1.44z" fill-rule="evenodd"/>
 <path d="m80.88,63.601c-1.023.592-2.333-.308-3.84,0-.408.088-.453-.188-.48-.48 .912-.196 4.154-.85 4.32.48z" fill-rule="evenodd"/>
 <path d="m76.56,64.8c-.725,1.104-1.973.217-2.88.24-6.183.162-12.843,1.347-18.24,2.64 1.242-1.328 3.582-1.446 5.76-1.92 4.251-.923 10.201-1.879 15.36-.96z" fill-rule="evenodd"/>
 <path d="m140.16,64.8c5.422,2.373 14.693,1.526 22.08,2.641 .773.116 1.558.558 2.4.72 1.063.204 2.215-.005 3.12.24 1.892.513 3.679,2.185 5.52,2.16 2.59-.035 4.966-3.029 7.681-1.92-1.444,1.512-3.678,1.063-4.801,2.88-1.085,1.756-.519,4.173-.72,7.199-3.554-.466-1.471-6.301-.24-7.68-.772-.29-1.988.514-2.88.48-1.518-.059-3.468-1.607-5.52-2.16-3.763-1.014-8.797-.909-13.92-1.2-1.294-.073-2.431-.513-3.84-.72-4.324-.636-7.297.133-8.88-2.64z" fill-rule="evenodd"/>
 <path d="m129.12,66.72c.897.143 1.792.289 1.92,1.2-1.064.024-1.795-.284-1.92-1.2z" fill-rule="evenodd"/>
 <path d="m134.64,67.68h.72c.27,1.171 1.015,1.866 1.44,2.881-1.581-.1-1.728-1.632-2.16-2.881z" fill-rule="evenodd"/>
 <path d="m136.56,67.92c1.167.673 2.503,1.178 3.36,2.16-2.053.213-2.964-.715-3.36-2.16z" fill-rule="evenodd"/>
 <path d="m126.96,68.16c.193.127.39.25.72.24-.749,1.756.327,4.244.24,5.279-1.326-.833-1.82-3.954-.96-5.519z" fill-rule="evenodd"/>
 <path d="m131.76,68.16c.898.861 1.153,2.366 1.68,3.6-1.542-.106-2.162-2.252-1.68-3.6z" fill-rule="evenodd"/>
 <path d="m129.84,68.641h.72c.067.812.382,1.378.24,2.399 .041.885 1.516,1.189.96,1.92-1.931-.148-2.016-2.144-1.92-4.319z" fill-rule="evenodd"/>
 <path d="m128.4,69.12h.72c-.402,1.666.059,3.305.96,4.32-2.206.01-1.69-2.742-1.68-4.32z" fill-rule="evenodd"/>
 <path d="m178.8,73.2c.388-.067.413.227.72.24-.458,3.941-3.205,5.595-4.56,8.64-.546-.175-.718-.722-.96-1.2 1.653-2.507 4.196-4.124 4.8-7.68z" fill-rule="evenodd"/>
 <path d="m271.2,73.44c-.802,1.281-3.67,1.05-5.04.479 .812-.911 4.174-.404 5.04-.479z" fill-rule="evenodd"/>
 <path d="m31.2,74.16c.638,1.364-1.785,1.73-1.92,3.12 .101.539 1.273.007 1.44.479-.897,1.469.913,2.003.24,3.12-1.078.073-1.814-2.055-.96-2.399-.005-.716-1.132-.309-1.44-.721 .075-2.004 1.896-2.263 2.64-3.599z" fill-rule="evenodd"/>
 <path d="m267.12,76.08c-1.714-.365-4.172.012-5.52-.72-.128-.98.518-.246.96-.24 1.33.017 4.309-.212 4.56.96z" fill-rule="evenodd"/>
 <path d="m170.4,75.84c.881,1.055-.663.912 0,0z" fill-rule="evenodd"/>
 <path d="m275.041,76.32c-.533,1.391-3.128,1.988-4.801,1.439 .251-.992 1.298-.338 1.92-.479 .98-.223 1.817-1.082 2.881-.96z" fill-rule="evenodd"/>
 <path d="m256.56,76.561c1.972-.132 3.256.424 5.28.239-.042.683 1.57-.29 1.2.721-2.306-.174-5.437.476-6.48-.96z" fill-rule="evenodd"/>
 <path d="m171.84,76.8c.935.242.037.826.24,1.681-.846-.194-.852-1.235-.24-1.681z" fill-rule="evenodd"/>
 <path d="m172.8,78.48c1.042,1.547-1.219.978 0,0z" fill-rule="evenodd"/>
 <path d="m250.081,78.48c2.864.255 6.908-.669 8.399.96-2.068-.575-5.639.214-7.68-.24-.285-.063-.897-.086-.719-.72z" fill-rule="evenodd"/>
 <path d="m170.88,78.72h.72c-.143,1.138-.669,1.892-.96,2.881-.691-.787.193-2.039.24-2.881z" fill-rule="evenodd"/>
 <path d="m193.44,78.96c1.007.473 1.029,2.511.96,3.84s-.539,2.849-.96,3.601c-1.191-.148-.067-1.158 0-1.92 .158-1.797-.295-4.296 0-5.521z" fill-rule="evenodd"/>
 <path d="m194.88,78.96c1.228,1.053 1.26,4.464.239,5.76 .223-1.356-.48-4.437-.239-5.76z" fill-rule="evenodd"/>
 <path d="m191.76,79.92c1.848,1.085 1.015,7.261-.72,6.96 .739-2.058 1.147-4.337.72-6.96z" fill-rule="evenodd"/>
 <path d="m274.32,79.92c.499.135.509.375.24.721-1.589.366-3.641,1.431-5.52.72 1.274-.967 4.171-.309 5.28-1.441z" fill-rule="evenodd"/>
 <path d="m190.32,81.12c.854-.373.146.815.721.72-.215,2.426-.154,5.127-1.921,6 .943-2.369 1.143-5.136 1.2-6.72z" fill-rule="evenodd"/>
 <path d="m111.36,82.8c-1.093.377-2.366-.938-4.32-.479 .647-1.462 4.064-1.117 4.32.479z" fill-rule="evenodd"/>
 <path d="m188.64,81.36c.854-.373.145.815.72.72-.214,2.426-.153,5.127-1.92,6 .942-2.369 1.143-5.136 1.2-6.72z" fill-rule="evenodd"/>
 <path d="m187.2,82.08h.721c.51,2.351-.238,5.304-2.4,5.76 .788-1.724 2.36-3.286 1.679-5.76z" fill-rule="evenodd"/>
 <path d="m176.88,85.44c-1.019,1.497-2.958,2.252-4.561,3.12-1.67.904-3.434,1.71-5.04,2.64-3.29,1.905-6.325,4.302-9.84,5.04 6.075-3.925 12.664-7.336 18.96-11.04 .28-.039.428.053.481.24z" fill-rule="evenodd"/>
 <path d="m195.36,88.561c.466-.096.351,1.093-.24.72v-.48c.205.044.226-.095.24-.24z" fill-rule="evenodd"/>
 <path d="m44.88,89.28c1.463,1.018 2.509,2.451 3.36,4.08-2.231.725-4.31-3.033-3.36-4.08z" fill-rule="evenodd"/>
 <path d="m106.8,90.72h1.68c.441.304-1.507.237-1.68.721v-.721z" fill-rule="evenodd"/>
 <path d="m238.32,91.68c.032.592.036,1.157-.239,1.44-.855.055-1.255-.345-1.2-1.2 .623-.306.723-.526 1.439-.24z" fill-rule="evenodd"/>
 <path d="m106.8,94.561c-.748.26-1.184.83-1.92.479 .596-.6.977-.699 1.92-.479z" fill-rule="evenodd"/>
 <path d="m144.24,102c-1.182,1.164-2.849,3.036-4.32,3.12 .332-2.014 2.854-3.03 4.32-3.12z" fill-rule="evenodd"/>
 <path d="m133.44,0c.661,1.21-.286,2.058-.24,3.36 1.036-.945 5.928-.667 5.52,1.68 .976.061 1.744.51 2.64,1.2 1.98-.766 4.66,1.284 7.2,1.44 .941.058 1.572-.323 2.4-.24 3.626.365 6.338,1.926 7.2,5.28 1.89,1.806 6.331,3.108 10.08,3.36 1.092.073 2.373-.365 3.36-.24 1.642.208 2.488,1.312 3.36,2.16 .882,4.802-4.185,3.656-4.08,7.68-.373.347-.936.505-1.44.72 .273,3.713-1.322,5.558-3.84,6.479-.485-1.425 1.156-2.639.72-4.8-1.043.237-1.539,1.021-2.64,1.2-.525-.036-.516-.605-.48-1.2-2.193.77-2.943-.952-5.52-.48-1.055-.889-2.472-1.132-3.84-.72 .231,1.369.619,2.581 1.2,3.6 2.977-.256 3.723,1.717 5.04,3.12 1.53-.15 1.802-1.558 3.36-1.68 .496,1.36-1.125,2.508-1.68,3.6 .085,2.601-2.602,3.526-5.28,3.36-1.327-.082-2.34-.969-4.08-1.2-.845-.112-1.693.199-2.4,0-1.853-.522-3.075-2.342-4.56-2.64-3.008-.604-5.574.035-7.92-.24-.286-.034-.765-.082-.96-.48-.596-.036-.996.124-1.2.48-.557-.163-.642-.798-1.2-.96-1.782-.19-3.249.812-5.28.96-1.568.114-3.397-.396-4.8,0-.501.141-2.556,1.43-3.84,2.16-1.734.986-3.294,3.068-2.64,6-3.7.105-2.35-4.175-.72-5.76 1.742-1.693 5.483-1.843 6-4.08-.454-.606-.841.221-1.44-.24-.102-.501.165-.635.24-.96-.361-.418-1.036.246-1.44-.48 .418-1.661 1.953-2.207 2.4-3.84-2.444-.743-3.389,3.304-5.76,2.64 .174-1.586 2.088-1.432 2.16-3.12-.938-.844-1.283.946-2.4.72-.818-.592.286-.993.24-1.68-.04-.594-.592-.754-.48-1.44 .304-1.847 2.142-2.905 2.16-5.04-.587-.567-1.203,1.865-2.16.96-.055-.935.516-1.244.72-1.92-.941-.766-.646,1.308-1.92.96-.47-.449-.074-.879 0-1.44-1.12.16-.97,1.59-2.16,1.68-.661-.689.136-1.274.24-1.92-.742.298-1.288.792-1.68,1.44-.899.019-.726-1.035-1.92-.72-.095,2.702 3.774,4.651 2.64,8.4-1.178.218-.915-1.006-1.92-.96-.017,1.458.771,2.109.72,3.6 .145,1.105-1.243.677-1.44,1.44 .052,1.047.604,2.273-.24,2.88-1.035.155-.753-1.006-1.68-.96-.71.33-.342,1.738-.72,2.4-3.537,1.023-3.397,5.723-7.68,6-.42-2.34 3.557-3.414 2.88-6-1.376.304-1.355,2.005-3.36,1.68-.072-1.928-1.187-2.812-2.16-3.84-.121-1 .701-1.059.48-2.16-2.576-.576-.561,3.439-2.16,3.84-1.683-1.037-1.298-4.142-2.4-5.76-1.295.784.296,4.457-.96,5.28-1.995-.965-1.007-4.913-2.4-6.48-.607,1.021.304,4.012-.48,5.04-2.55-.97-1.452-5.589-2.4-8.16-1.027-.366-3.845-.713-5.28-1.44-.174-.734.414-.706.24-1.44-.665-.517-.899,1.983-2.16.96-.648-.769.185-1.592 0-2.64-1.437-.468-1.665,1.894-2.88,2.4-1.37-.482-.456-2.795 0-3.6-.728-.843-1.35,1.365-2.16.48-.707-1.138.207-2.433.72-3.12-.838-.631-1.688,1.383-2.64.72-.943-1.514.509-2.464.96-3.36-1.133-.208-1.402,1.303-2.16.72-.323-.725-.323-1.916 0-2.64 1.014-.628 1.989.196 2.4-.96-.703-1.081-1.477.165-2.64,0-.255-1.215.709-1.21.96-1.92-1.572.028-1.792,1.409-2.4,2.4-.21.771.623.498.72.96-.541.5-.345,1.735-.96,2.16-1.694.334-1.284-1.437-1.68-2.4-.145-1.105 1.244-.677 1.44-1.44-.597-.153-1.457-.674-.72-1.44-1.269-.229-1.071,1.009-1.44,1.68-3.349.812-6.573,1.466-9.84,2.4-1.705.487-3.133,1.579-4.8,2.16-1.385.483-3.16.583-4.8,1.2-1.197.45-3.126,1.493-5.04,1.68-3.551.347-7.427-1.317-11.28-.96-.817.076-2.352.765-3.84.48-3.958-.757-6.133-5.286-10.08-6.48-.39.787.054.917 0,1.92-.335.464-.888.712-1.44.96 2.98,1.513 4.586,5.619 7.68,7.2 1.716.877 4.545.535 6,1.68 .938.739 1.315,2.346 1.68,3.36-2.215-.345-2.792-2.328-5.52-2.16-1.023-1.217-3.051-1.429-4.8-1.92-3.568-4.546-7.968-9.424-16.08-8.64-.236-.323-.64-.479-.96-.719 .112-2.756 3.356-4.366 6.24-4.56 2.42-.163 5.569.724 7.2,1.68 4.124-.121 7.606,5.416 12.24,5.76 1.875.139 4.255-.298 6-.48 1.703-.177 2.927-.245 4.8-.24 2.238.005 4.217-.22 6.24-.96 .324-.119.578-.591.96-.72 1.552-.527 3.365-.682 5.04-1.2 6.098-1.887 12.019-4.178 19.44-4.8 3.247-.272 6.516.288 10.08.48 3.667.198 7.363.765 10.8,1.44 6.516,1.279 12.563,3.972 18.24,3.36 1.687-.182 3.588-.896 5.52-1.44 1.657-.466 3.707-1.454 5.52-1.44 .624.005 1.632.597 2.64.72 .438.053 1.605-.276 2.16-.24 1.387.089 1.878.816 1.92-1.92 1.553-1.2.833-3.783 2.64-5.04-.067-.36-1.032-1.011-.48-1.2-.041-1.012.369.004.72,0 .329-1.111.5-2.38 1.92-2.4zm-1.2,7.2c.941-.306.804.657.48.96 1.633-.861 2.619-1.573 4.08-2.16-.312-.487-1.027-.573-1.44-.96-.679.281-.876,1.044-1.68,1.2-.179-.739.659-.461.48-1.2-1.393-.033-1.188,1.532-1.92,2.16zm8.4,2.4c.213-.427.67-.61.48-1.44h-.96c.004.636-.133,1.413.48,1.44zm1.44.24c1.031.29 1.681-1.179.72-1.44-.346.374-.967.474-.72,1.44zm8.4.72c.584-.135 1.234-.206 1.2-.96-.331.01-.527-.113-.72-.24 .18.74-.827.293-.48,1.2zm2.16-.24c.035-.284.427-.544 0-.72-.035.284-.427.544 0,.72zm-1.44,2.4c1.421-.303 2.884-1.696 2.88-2.64-1.545.295-2.468,1.212-2.88,2.64zm-9.36-.96c.92.043.087-.197.24-.72 .595.035 1.165.045 1.2-.48-.653-.533-1.508.27-1.44,1.2zm1.92.24c.8-.062 1.558-.962.96-1.68h-.72c-.077.564-.379.901-.24,1.68zm6,.72c1.01-.355 2.365-1.628 2.16-2.4-.678.843-1.902,1.138-2.16,2.4zm-10.08,3.6c.934-.106.982-1.098 1.44-1.68-1.073.112-.525-1.395-1.2-1.68 .612-.428.982-1.098.96-2.16-.053-.187-.201-.279-.48-.24-1.081,1.533-.88,3.383-.72,5.76zm13.2-3.36c1.661.221 1.724-1.156 2.16-2.16-1.273.167-1.82,1.06-2.16,2.16zm-15.6-.48c.012-.731-.218-1.222-.72-1.44-.268.651-.469,1.655.72,1.44zm-132-.24h.72c.067-.547-.058-.902-.48-.96-.075.324-.342.458-.24.96zm84.24.48c.454.054.53-.271.96-.24 .077-.556-.039-.921-.24-1.2h-.72c-.328.307-.328,1.133 0,1.44zm3.12,1.2c.525-.435 1.113-.807.96-1.92-.278-.201-.644-.316-1.2-.24-.317.387-.518,2.115.24,2.16zm46.08,1.44c.97-1.361-.431-2.179.24-3.6h-.72c-.21.865-.744,3.444.48,3.6zm2.4-.96c.937.799 2.766-1.736 1.44-2.4-.549.731-1.155,1.405-1.44,2.4zm5.04-.48c-.167.888.379,1.061 1.2.96-.112-1.332 2.081-2.184.48-2.88-.439.692-.39.751-.24,1.68-.734-.174-.706.414-1.44.24zm-20.4,0c1.085.046 1.368-.712 1.44-1.68-.935.056-1.81,1.075-1.44,1.68zm18,0c1.133.174 1.053-.867 1.2-1.68-1.079-.154-1.49,1.215-1.2,1.68zm11.76,1.92c.734-.174.706.414 1.44.24 .437-.464 1.088-3.101-.24-3.12 .985,1.641-.99,1.71-1.2,2.88zm.96-3.36c-.034.284-.427.544 0,.72 .035-.283.427-.544 0-.72zm-61.2,2.16c1.207.087 1.536-.704 1.68-1.68-.309-.331-1.042-.237-1.68-.24v1.92zm53.28,1.2c-.452-.537 1.876-2.377.72-2.88-1.315.218-2.03,3.321-.72,2.88zm-50.16-.72c1,.12 1.152-.608 1.2-1.44-.331.01-.527-.113-.72-.24-.318.402-.636.804-.48,1.68zm16.32.48c.174-.591 1.329-1.924 0-1.92-.253.25-.495,1.714 0,1.92zm35.52-1.44c-.258,1.218 2.475,1.736 2.88.72-.136-.993-2.013-1.223-2.88-.72zm-7.44.48c.085,1.035.496,1.744 1.2,2.16 .053-.187.201-.279.48-.24-.055-1.145-.368-2.032-1.68-1.92zm1.92,1.44h1.2c-.154-.966-.419-1.82-1.68-1.68-.158.878.519.921.48,1.68zm-52.56.48c.476-.359 1.931-1.353.72-1.92-.263.736-1.814,1.204-.72,1.92zm10.56-.48c0-.781.503-1.293-.48-1.44-.369.366-.428,1.646.48,1.44zm34.32,1.2c-.08-.96.309-2.389-.72-2.4-.466.7-.339,2.468.72,2.4zm20.4-.96h1.2c-.122-.598.008-1.448-.72-1.44-.079.561-.288.992-.48,1.44zm-14.16,1.92c.439-1.277-.321-2.898-1.68-3.12 .237,1.363.725,2.476 1.68,3.12zm-62.16.48c.891.196 3.302-2.301 2.4-3.12-1.218.622-1.84,1.84-2.4,3.12zm60.72,0c.891-.671.098-2.048-.72-2.4-.721.956.218,1.911.72,2.4zm21.12,2.88c-1.17-1.337.718-3.903-.72-5.04-.053.187-.201.279-.48.24 .854,1.511-.995,5.419 1.2,4.8zm-1.68-5.28h-1.44c.062,1.513-.211,1.914 0,3.12 .472.072.476-.324.72-.48-.13,1.17.103,1.978.72,2.4 .207-1.685.623-3.841 0-5.04zm-77.04,3.84c1.075-.529 2.23-2.244 1.68-3.6-.76,1-1.358,2.162-1.68,3.6zm13.92-2.64c.418.018.747-.053.96-.24 .072-.632-.333-.788-.96-.72v.96zm65.04,1.68c.744.173 1.967-1.006 2.4-1.92-.661-.665-1.002.215-1.68.24-.023-.377.032-.832-.48-.72 .092.831.567,1.158-.24,2.4zm-24.48,1.2c.575-.905.227-2.94-.48-3.36-.872.557-.351,2.999.48,3.36zm14.4-2.16c-.071-.631.931-.189.72-.96-.454.054-.53-.271-.96-.24-.38.359-.176.982.24,1.2zm-8.88.48c.946.146 1.063-.537 1.2-1.2-.324-.075-.458-.341-.96-.24 .173.734-.245.875-.24,1.44zm5.52-1.2c.036.827 1.076,1.444 1.68.96 .208-1.071-1.08-1.44-1.68-.96zm18.96.48c-.87-.652-1.164.245-2.16-.72-1.283.956-2.362,2.118-3.36,3.36 1.345.24-.19.72.48,1.44 1.299.099 1.012-1.388 2.16-1.44-.184.697-1.138.623-.96,1.68 2.032-.688 2.02-3.42 3.84-4.32zm.24,4.8c1.358.286 1.419-3.111.479-3.6-.234.246-.475.485-.72.72-.312-.596.704-.996 0-1.2-1.181,1.139-2.03,2.61-2.88,4.08 1.135-.195 1.611,1.427 2.88.96 .307-.6-.121-.751.241-.96zm-38.4-3.84c.278.202.644.317 1.2.24 .476-.454.116-1.134 0-1.68-.73.15-1.227.533-1.2,1.44zm4.32.24c.734-.347.468-1.705-.48-1.68-.352.38-.495,1.906.48,1.68zm24-.24c.972.419.406-2.051 0-.96 .619.058-.33.413 0,.96zm-4.08-.48v.48c.59.374.706-.815.24-.72-.014.147-.036.284-.24.24zm-1.92.72c.073-.632-.332-.788-.96-.72-.182.845.628,1.074.96.72zm4.56,0c.065-.327-.148-.937-.24-.48-.065.327.149.937.24.48zm-19.44,3.36c.363-1.019-.597-2.103-1.44-2.64h-.48c.073,1.448.197,2.843 1.92,2.64zm6.48,1.44c-.151-1.11.845-3.366 0-3.6-.855.682-1.485,3.064 0,3.6zm-3.84-2.64c.732.867.729,2.471 1.68,3.12 1.107-1.296-.659-4.145-1.68-3.12zm.24,2.64c.005-1.125.126-2.366-.96-2.4 .17.95.017,2.223.96,2.4zm13.92,1.44c.599-.521.47-1.77 1.44-1.92 .054.454-.271.53-.24.96 .597.037.743-.377 1.2-.48-.01-.79-.405-1.195-.24-2.16-.79.01-1.195.405-2.16.24-.375,1.145-1.314,1.726-1.68,2.88 1.218.418.558-1.042 1.44-.96 1.162.149-.33,1.291.24,1.44zm-55.2-1.68c.882.382 1.122-1.826.24-1.68-.331.31-.237,1.043-.24,1.68zm40.08,2.4c.823-.874.081-3.34-.72-4.08-.279,1.117-.323,3.542.72,4.08zm-5.28-2.64c.454.476 1.134.117 1.68,0v-.96c-.604-.484-2.054-.277-1.68.96zm16.8.96c.874.831 2.614-1.301 2.4-2.16-.723.797-1.793,1.247-2.4,2.16zm6,1.44c.576-.944 1.133-1.907 1.44-3.12-.413-.095-.615.356-.72,0-.054-.187-.006-.474-.24-.48 .365,1.375-1.001,2.339-.48,3.6zm2.88-2.64c.055.935-.516,1.244-.72,1.92 1.03.49 1.02,2.021 2.64,1.92-.231-1.351.486-1.753 1.68-1.68 .223.817.672,1.408.48,2.64 1.738.298.666-2.214 1.92-2.4 1.014.826 1.336,2.344 1.199,4.32 1.217-.504 1.426-2.885.96-4.32-2.59-.782-5.277-2.703-8.159-2.4zm0-.48c-1.318-.227-1.906,2.216-2.4,3.6 1.545-.455 1.513-2.486 2.4-3.6zm-53.52,1.68c.632.073.788-.332.72-.96h-.72v.96zm31.68,3.6c.973-.924.027-2.925 0-4.32h-.72c.108,1.572-.374,3.734.72,4.32zm10.32-3.36c.413.013.615-.185.72-.48-.377.023-.832-.032-.72.48zm-41.28.48h.48v-.48h-.48v.48zm23.76.72c.566.587.447-.358 1.2-.24 .067-.547-.058-.902-.48-.96-.268.372-.78.5-.72,1.2zm4.08-.48c.33,2.71-.843,6.923 1.44,7.68-.374-2.506-.587-5.173-.48-8.16-.307-.013-.333-.308-.72-.24-.013.307-.308.333-.24.72zm-7.68,2.4c.294-.746 1.116-.964.96-2.16h-.96c-.003.739-1.041,1.819 0,2.16zm7.2,3.12c.213-1.003-.143-3.326 0-5.04h-.72c-.249,1.476-.613,4.426.72,5.04zm-39.84-2.16c1.255.056.927-1.473.96-2.64-1.474.028-1.607,1.739-.96,2.64zm45.36-.48c.959-.401 1.812-.908 2.16-1.92-1.211.062-2.441,1.139-2.16,1.92zm5.52,1.2c.849.129 1.052-.388 1.44-.72-.08-.56-.246-1.034-.72-1.2-.272.59-1.191,1.33-.72,1.92zm1.92.72c.563.077.901.379 1.68.24 .348-.486 1.22-2.064.24-2.4-.785.575-1.872.849-1.92,2.16zm-45.12-.24c.8-.16 1.303-.617 1.2-1.68-1.066-.106-1.306.614-1.2,1.68zm35.76,3.12c.203-1-1.35-4.134-1.44-4.56 .287,1.713-.627,4.627 1.44,4.56zm2.4-4.08c.595.035 1.165.045 1.2-.48-.595-.035-1.165-.044-1.2.48zm1.2,3.12c.75-.036 1.043.367 1.92.72 .102-.458.686-.434.48-1.2-1.192.742-2.51-.309-2.64,0 .187.053.279.201.24.48zm-42.48,1.2c.477.003.306.655.96.48 .073-.727.742-.857.48-1.92-.948.012-1.428.492-1.44,1.44zm4.32,1.2c.851-.349 1.429-.971 1.44-2.16-.342-.058-.405-.396-.72-.48-.413.646-1.301,1.762-.72,2.64zm44.4-1.92c-1.373-.06-3.127-1.498-3.6.24 .912.318 1.331.596 2.4.24 1.283,1.987 4.401,4.188 7.68,2.64-2.522-.433-5.794-.3-6.48-3.12zm9.12-.24c-.427-.213-.61-.67-1.44-.48-.095.799 1.293,1.34 1.44.48zm-6.24,1.92c2.77.016 6.719.536 8.88,1.92 .778-.582 1.256-1.463 1.92-2.16-2.627,1.69-4.573-1.275-7.2,0v-1.2c-1.314-.114-1.326,1.074-2.64.96 .31-.741-1.004-1.636-2.4-1.44 .074,1.046.869,1.371 1.44,1.92zm6.96,2.16c-.036-1.164-1.457-.943-2.64-.96 .195.934 1.802,1.435 2.64.96z" fill-rule="evenodd"/>
 <path d="m230.64,24.96c.02,1.304-3.194,1.443-3.12,3.6 2.447-.833 3.345-3.215 6-3.84-.061.819-.606,1.153-.479,2.16 1.592-.168 1.146-2.373 2.88-2.4 .729.904-.275,1.679-.24,2.64 1.521-.318 1.394-2.287 2.4-3.12 .791.139.344.906.239,1.44 1.309.269.83-1.25 1.681-1.44 1.08-.073.816,1.198 1.92.48 .098.579-.438.522-.24,1.2 1.262-.395 1.941-.428 2.4-1.92 .999-.04 2.003-.083 2.399.48 .79-.73 1.792-1.248 3.36-1.2 .198.678-.339.622-.24,1.2 1.769-.551 2.141-2.5 4.56-2.4-.056.904-.903,1.016-.96,1.92 1.93-.39 2.646-1.995 4.561-2.4 .138.501.595.685.479,1.44 1.951.11 2.184-1.498 3.36-2.16 1.034-.005 1.847-.233 2.16-.96 .65.436-.133,1.448-.24,1.92 1.222.734 2.381-.653 2.64-1.68 .478.003.306.655.96.48 1.064-.66 1.755-2.826 3.12-2.4 .308,1.508-.956,1.443-.72,2.88 1.774-.865 2.45-2.83 4.8-3.12 .032.591.037,1.156-.239,1.44 1.442.17 2.134-1.446 3.359-.72 .052,1.572-1.651,1.389-1.92,2.64 1.874.031 3.307-2.452 6-2.4 .387,2.227-2.19,1.489-2.64,2.88 1.332,1.41 2.44-1.122 3.12-1.92 .324.235.311.809.72.96 .995-.365 2.112-.607 3.6-.48 .035,1.395-1.245,1.475-2.16,1.92 1.183.058 3.745-.573 5.521-.72 .384,1.903-2.61.43-2.4,2.16 1.619.495 2.97-1.348 5.04-1.2 .984.192-.124.988.48,1.44 1.207-.443 2.099-2.039 3.6-1.44 .019,1.218-1.06,1.34-1.439,2.16 .627.298 1.735-.977 2.399-1.44 1.646.514.461,3.859 2.88,3.6 .714-.487.512-1.889 1.681-1.92 .45.349.029,1.571.479,1.92 .881.081 1.231-.369 1.44-.96 1.144.537 3.416-.057 4.56.48 .537-.104.098-1.183.24-1.68 .978.07 1.396.843 2.4.24-.276-.672-.276-1.248 0-1.92 .929-.209.392,1.048 1.439.72 .521.041.108-.851.24-1.2 1.318-.765 3.834-2.162 5.76-3.12 2.551-1.27 8.036-2.589 9.12,1.44-.533.556-.936-.082-1.68,0-.463.097-.021,1.099-.96.72-.092.892.972.627.72,1.68-1.211.171-1.342-.738-2.64-.48-.001.801.78.819.72,1.68-1.076.248-1.481.714-2.16-.24-.225.176-.363.437-.48.72-.77.21-.497-.623-.96-.72-1.192.833.727,1.112.721,2.16-.634.086-.863.577-.721,1.44-.888.168-.599-.841-.96-1.2-.978.451-.146,4.006.96,3.12 .462.173-.553.864-.96.96-.754-.765-1.738-1.301-2.64-1.92-1.047.576.271,2.866-.24,3.6-.843.042-.789-.811-1.439-.96-.253.98.118,1.693 0,3.12-.808.007-.489-1.111-.96-1.44-.746.387-.639,2.476 0,2.88-.195.779-1.086.691-.48,1.68-.942-.017-1.324-.595-1.92-.96-1.665,1.134.359,3.023.72,4.32-1.168.128-1.123-.957-1.92-1.2-.722.842.42,1.357.48,2.16-.328,1.534-.477,2.333-1.44,1.2-.973,1.382.728,2.146.721,3.36-.83.19-1.014-.267-1.44-.48-1.16,1.271 1.298,2.35.96,4.32-1.089-.591-1.571-1.789-2.64-2.4-.46,2.328 2.351,3.388 2.159,6.24-.849-.191-.879-1.201-1.68-1.44 .479,2.241 2.627,2.813 2.16,6-.389-.651-.728-1.353-1.44-1.681-.323,1.368 1.737,2.42 1.2,4.8-.359-.36-.722-.718-1.2-.96-.019,1.539.948,2.093 1.2,3.36-.031,1.125-.544-.491-1.439,0-.058,1.018 1.018.902.96,1.92-.279.201-.644.316-1.2.24 .042.838.552,1.208 1.2,1.439-.071.49-.649.471-.721.961 .306.733 1.375.705 1.681,1.439 .205.766-.378.742-.48,1.2 .086,1.034 1.33.91.96,2.399 .912.929 1.58,2.101 2.4,3.12 1.892.349 2.77,1.71 3.84,2.88-.363.348-1.44-.627-2.16-.72-.015,2.095 2.899,1.261 2.641,3.601-.598-.026-.743-.45-1.2,0-.168,1.047.692,1.066.72,1.92-2.066,1.76.046,4.028-.72,6.72-1.315-.365-1.432-1.929-2.16-2.88-1.098,1.597 1.475,2.706 1.439,4.32-.037,1.732-1.934,2.181-2.159,4.079-.739.179-.462-.658-1.2-.479 .661-.433.562-1.891.24-2.64-1.483.368.285,2.965-1.44,3.359 .062.898.557,1.364.96,1.92-.194,1.67-2.052,1.826-3.36,1.2-1.608,1.146-4.425.831-4.8-1.2-1.084.116-.816,1.584-1.439,2.16-.769-.031-1.057-.544-.96-1.439-.861-.199-1.161.541-1.681,0-.029-1.431-.233-1.628.24-2.641-.875-.229-1.369,1.985-2.64,2.16-.241-.319-.228-.893-.721-.96-.702.017-1.353.087-1.199.96-.403-.907-1.354-.285-1.44.48-.415-1.415-2.704-.302-3.6,0-.14-.89.74-1.392.239-1.921-1.434.921-3.167.28-4.56.961 .516-1.805 1.029-3.611 2.4-4.561 .422.058.547.413.479.96 1.778.179 2.812-.388 4.561-.24 .743.697 1.937.943 3.359.96-.466.73-1.19.486-.72,1.681 1.21-.23 1.494-1.387 1.439-2.88 1.759-1.922 3.952-3.408 6.721-4.32 1.276-1.945 2.058-4.481 1.92-6.96-.211-3.77-2.784-6.685-4.561-8.64-.744.024-.685-.756-1.68-.48-.02-.38.115-.915-.24-.96-.645-.165-.464.496-.72.72 .035.525.604.516 1.2.48-.19,1.551 1.276,1.442 1.439,2.64-.995.931-.662,2.099 0,3.12-.519-.201-.818-.621-1.68-.48 .01,1.431 1.577,1.303 1.2,3.12-.458-.102-.435-.686-1.2-.479-.07.359-.32.43-.72.96-.066.946 1.026.733.96,1.68-.458-.103-.435-.686-1.2-.479 .017,1.718 1.726,1.825.48,3.12-1.218.177-1.485-.596-2.16-.96-.417,1.455 1.314,2.876.239,4.319-.979-.301-1.618-.941-1.92-1.92-.482.812.378,2.335.24,3.601-1.3-.061-1.279-1.441-2.399-1.681 .041.679-.207,1.646.479,1.681-.508.797-.697-.721-1.439-.48-.702.388-.095.76-.48,1.2-1.133.173-1.421-.5-1.92-.96-.993.738-2.502-.369-4.08.479 .01,1.931-1.625,2.216-1.68,4.08-1.342.178-1.747,1.294-2.88,1.681 .55-2.418 1.929-2.82 3.119-4.801 .175-.654-.477-.482-.479-.96-2.553.728-3.357,3.203-5.76,4.08 .316-1.763 1.841-2.319 2.64-3.6-.863-.629-1.809.32-2.16.96-.753.118-.634-.827-1.2-.24-.816,1.023-2.079,1.6-2.88,2.64-.788-1.227 1.764-2.733 2.4-4.079-3.429-.936-4.164,4.139-6.72,4.079 .121-1.317 1.381-1.498 1.68-2.64-.349-.711-.937.316-1.68,0 .366-1.553 3.217-.623 3.359-2.4-3.889-.368-5.074,4.045-7.68,5.761-.511-1.988 2.047-2.886 2.64-4.561-3.037-.396-5.224,2.136-6.239,4.561-.557.076-.922-.039-1.2-.24 .175-1.982 3.016-2.044 2.16-4.32 1.751-.008 2.569-.95 3.119-2.16-2.675-.434-5.205,1.354-6.72,2.881-.135.745-.286,1.474-1.2,1.439-.117-1.558 1.229-1.652 1.681-2.64-2.708-.865-3.478,2.281-5.28,3.12 .062-2.199 3.049-3.495 4.32-5.28-3.358-.717-5.194,2.165-6.24,4.56-.73-.067-.934.77-1.44.24-.215-1.46 2.158-2.289 2.641-3.84-.908-.296-1.936.159-2.4.479-1.237.855-.811,3.028-2.64,3.12-.604-2.08 1.812-3.12 2.399-4.8-1.983-.301-3.484,1.953-4.319,3.601-1.836-1.609 1.396-3.485 1.92-5.04-3.198.002-4.136,2.264-5.28,4.319-1.661-.38.062-2.111.48-2.64 .076-.637-1.345.225-.961-.72 1.811-.431 3.01-1.471 3.601-3.12-3.107-.307-4.255,3.424-6.24,5.04-.229.65-.105,1.654-1.2,1.439 .19-2.53 2.141-3.299 3.12-5.04-.482-.66-1.612.921-2.16.24 1.631-1.089 3.924-1.517 4.801-3.36-.566-.628-1.515.392-2.4.24 1.806-.914 4.193-1.246 5.04-3.12-.335-.722-1.242.499-1.68-.239 .84-.84 3.031-.329 3.84-1.2 .429,1.567 2.329-.16 3.359.479-.395.726-1.448.792-1.68,1.681 .15.874 1.213-.648.96.479-1.528-.169-2.061.659-2.64,1.44 2.885,1.042 3.441-2.317 5.76-2.641-.022.938-1.172.749-1.2,1.681 2.574.971 3.401-1.877 5.521-2.16 .01.89-.9.859-1.2,1.439 .074.326.601.199.96.24-1.16.487-3.23,1.185-2.88,2.4 3.566.846 4.448-3.071 7.439-3.601-.323,1.116-1.694,1.186-1.92,2.4 2.005.932 3.82-1.578 5.04-1.44-.44,1.319-1.828,1.691-2.16,3.12 2.206.741 3.556-2.653 5.28-2.399-.071.809-1.063.695-1.2,1.439-.04.521.852.109 1.2.24-1.008,1.072-3.587.572-3.84,2.4 1.392.479 2.563-.075 3.6-.721 1.341-.834 2.054-2.849 3.841-2.88 .601,1.138-2.203,1.544-1.44,2.88 2.251-.148 1.993-2.807 4.32-2.88-.938,1.304-1.591,2.89-2.88,3.84 1.042,1.188 3.188-.206 3.84-.96 1.017.562-.818,1.716-.721,2.88 1.769.723 2.359-.943 2.881-1.68 1.067-1.508 2.795-3.421 5.279-3.6 1.573-.114 4.059,1.218 5.28-.24 .447-2.379 1.771-4.89 1.92-7.44 .186-3.154-1.78-4.932-2.88-7.199-.431-.031-.506.293-.96.239 .021-1.941-1.529-2.311-1.68-4.08-.431-.03-.507.294-.96.24 .242-1.533-.159-2.73 0-4.08-.777-.297-.184.776-.961.48 .378-.662.67-1.411.961-2.16-.036-.524-.605-.516-1.2-.48-.326-2.005.63-2.729.72-4.319-.989-.851-2.209-1.472-2.64-2.88-.618,1.279-2.639-.274-2.641,1.68-.455-1.064-1.623-1.417-1.68-2.88-1.335.027-.351,1.284-.48,2.16-.702.062-.737-.542-1.439-.48-.698.769.385,1.211.24,2.16-.447-.033-.803-.158-.96-.48-.772,1.477-2.501,1.227-3.12,2.4-.843.043-.79-.811-1.44-.96-.812.751.484,1.422.48,2.16-1.355-.999-1.05.987-3.12.24-.754.731-.364,1.283-.72,2.159-1.32.004-3.603-.895-3.841.721-1.101-.02-1.222-1.018-2.159-1.2-.873.008-1.055.705-.961,1.68-1.403-1.059-3.857.272-4.319,1.681-1.2-.561-1.313-2.207-3.36-1.921-.539.102-.007,1.273-.479,1.44-.854-.427-.721-1.839-1.44-2.4-1.945.629-.705,3.243-2.16,4.561 .125.995 1.212,1.028.96,2.399-.89-.203-1.367-1.085-.96-1.92-.916-.196-.929.511-1.2.96-.065,1.026.697,1.224 1.2,1.681-.208.698-.359.27-.96.24-.261,1.517-.123,2.263 0,3.84-2.401.693-1.623,3.596-2.399,5.52-1.096.056-1.677-.403-2.4-.72-.823,1.186.849,1.622.96,2.64-.859-.125-1.106,1.596-.72,1.92-.333.548-1.671.09-2.4.24 .281.999.198,2.362.96,2.88-.821.539-1.355,1.364-2.64,1.44 .099,2.099-.342,3.658-1.92,4.08-.03-1.65-.018-3.343-.721-4.32-.737.062-1.079.521-1.68.72 .158.719.514-.229.96,0 .861,3.395-2.255,5.548-1.439,8.88-.955.886-1.539,2.142-3.12,2.4 .044-.756 1.292-.308 1.2-1.2-.655-.594-2.19.983-2.881-.24 .669,1.218-.702,1.641-1.68,1.921-1.055.095-.627-1.294-1.439-1.44-.53.03-.103,1.018-.24,1.44-1.262.66-2.475-.048-2.88-.961-.494.066-.227.895-.721.961-2.078-.002-2.521-1.639-3.84-2.4-.79.575.873.708.48,1.68-1.003-.054-1.134.391-1.92,0-.315-1.845-.375-3.944-2.88-3.6-.63.7.692.903.479,1.92-.928-.032-.946-.974-1.68-1.2-1.175-.055-1.509.731-2.641.72-.604-.601.276-.942.24-1.68-.497-.403-2.028.201-1.92,1.2-.786-.905-2.057-.403-2.64-.48-.024-.744.293-1.146.479-1.68-1.371-.251-1.488.751-2.399.96-.642-.67.225-1.186.239-1.92-1.041-.88-2.251,1.162-3.359.24 .68-1.641 4.12-.521 4.56-2.4-.8-.627-2.428-.036-2.399.96-.646.165-.464-.496-.721-.72-1.091.255-2.224,1.524-3.359.96 .699-1.78 4.093-.867 4.56-2.88-.31-.915-1.892.1-2.399.479-1.287-.713-2.731,1.053-3.601.721-.12-1.001.608-1.152 1.44-1.2-.033-.767-1.071-.529-1.44-.96 .665-.936 1.823-1.377 2.16-2.641-1.546-.35-3.062.953-4.08,1.921-1.158,1.1-1.717,1.163-3.6,2.399-1.455.955-1.604,1.111-3.601,1.68-1.124.32-3.201.81-4.8-.479-6.19,2.415-12.485,4.753-18.24,7.92-1.481.815-3.561,2.335-5.76,2.88 .011-.961 1.304-1.288 1.92-1.68 6.006-3.825 13.579-6.969 20.64-10.32-.168-.738-.168-.461 0-1.2 2.611.586 6.138,2.727 8.4,0 2.902-.236 5.376-2.888 5.76-5.76 .256-1.907-.696-3.437-.96-5.76-.105-.931.145-1.977 0-2.88-.305-1.909-1.624-3.933-3.12-5.04-.368-.273-1.383-.365-1.92-.721-.385-.255-.593-.853-1.439-.96-2.404-.303-4.307,1.339-6,2.641-.467.732-.437,1.963-1.681,1.92-.722-3.294 4.428-5.96 8.16-5.521 2.075.245 5.126,2.598 6.24,3.841 .472.524 1.68,2.294.72,2.399 1.403.085.617,3.875 1.2,5.521 2.312-.008 3.317-1.323 4.32-2.641-1.336.185-2.205.835-3.601.96 .286-1.794 2.658-1.502 4.561-1.68 1.637-.764 2.333-2.467 4.56-2.64-.331,1.349-2.197,1.162-2.64,2.399 2.671.271 3.303-1.497 5.28-1.92 .089.97-.821.939-1.2,1.44 2.054,1.009 3.32-.836 5.04-.96 .031,1.039-1.424.591-.72,1.68-2.073-.312-2.011,1.51-3.841,1.44-.113-.754.646-.635.721-1.2-1.324-.757-3.029.165-3.841.72-1.72-1.792-3.744.213-4.8,1.68 2.409.489 2.703-1.137 4.32-1.439 .03.431-.294.506-.24.96 .704.203 2.84.032 3.36-.72 4.203,2.416 5.057-3.177 9.359-2.881-.007.968-1.405.372-.72,1.44-1.561.157-3.26.455-4.08,1.92 1.276.218 2.711-.352 3.36,0-.749,1.268-3.583,1.127-3.12,2.88-1.442-.091-4.054,2.366-4.32,4.08-1.231.048-1.51,1.05-2.159,1.68 .332.548 1.67.09 2.399.24 .327-.043 1.164-1.141.24-.96 1.9-2.419 3.825-4.814 6.479-6.479-1.374,1.585-3.073,2.847-4.319,4.56 1.364-1.036 4.059-.741 4.8-2.4 .771-.21.497.623.96.721 .498-1.321 1.6-4.019 2.88-2.4 .53-.526-.237-.98 0-1.92 1.434-.886 1.496-3.145 3.36-3.6-.274-1.314.316-1.764 1.2-1.92-.497-.384-.296-1.465-.721-1.92 .058-.423.413-.548.96-.48 .294-1.094-.658-.941-.479-1.92 .678.198.621-.338 1.2-.24-.217-1.274.854-2.51.96-3.84 .045-.572-.453-1.291-.48-1.92-.039-.909.497-1.909.48-2.64-.009-.359-.402-.456-.48-.96-.073-.471.311-.706.24-.961-.361-1.308-1.313-2.44-2.4-3.12-1.032.601-.226,1.346-.479,1.92-.601-.76-1.012-1.708-2.641-1.44-.715.005-.308,1.132-.72,1.44-1.189-1.256-1.68.787-2.64-.24-.539.101-.007,1.273-.48,1.439-.18.82.976.306.72,1.2-.676.344-1.217-.132-1.68.721-.934-.267-1.387-1.014-2.399-1.2-1.125.432.398,1.178-.24,1.92-1.065.025-1.409-.672-2.641-.48-.12,1.16.749,1.332.721,2.4-.956.076-.65-1.11-1.44-1.2-.888-.168-.599.842-.96,1.2-.807-.153-.769-1.151-.72-2.16-1.142.379-.07,2.97-1.92,2.64-.057-.944.81-2.675-.24-3.119-.971.459.712,3.974-1.2,4.079-.548-.491.068-2.148-.479-2.64-1.764.477-1.849,2.632-3.12,3.601-.524-.036-.516-.605-.48-1.2-.551.329-.771.988-1.2,1.439-.492-.066-.479-.641-.72-.96-.464.416-.685,1.075-1.2,1.44-.819-.437-1.152.032-2.159,0-.005-1.044.741-1.338.479-2.641-1.431.021-.813,1.312-1.2,1.921-1.389.108-1.06-1.501-1.92-1.921 .466-1.854 2.123-2.517 3.12-3.84 .793.247 1.075,1.005 1.44,1.681 1.41-.76 2.814-1.944 4.8-1.44 .902-.104.91-.754 1.92-.96 .958-.195 2.248.425 2.88.24 1.271-.371 1.295-1.035 1.92-2.16 .832.288 1.646.594 2.16,1.2 .857.053 1.082-1.247.72-1.68-.52-.387-1.308.754-1.92-.24 .983-.776 2.021-1.5 1.68-3.6-1.883.917-3.696,1.903-3.84,4.561-.446.032-.802.157-.96.479-.763-.276-1.358-.722-1.68-1.44-.601,1.193-2.438,2.045-4.08,1.44-.36.901-2.017,1.754-2.88.72-.731.294.351.916-.24,1.2-2.704.147-1.554-3.776-.72-4.8 1.679.241.938,2.901 2.399,3.36 .559-.642.825-1.576 1.44-2.16 .843-.043.789.811 1.44.96 .676-.242-.066-1.02 0-1.44 .351-.849 1.271-1.128 1.68-1.92-.37-2.29.639-3.201 1.439-4.32-.504-.696-1.465-.934-1.68-1.92-.73.389-1.035,1.205-1.92,1.44-1.287.167-1.53-.709-2.4-.96-.783.496-.796,1.764-1.92,1.92-.876-.003-1.077-.682-1.68-.96-.411.709.461,1.839.24,3.12-1.639.864-2.42-.628-3.12-1.44-.807,1.691.107,3.729.72,4.8-4.291.976-3.044-5.569-6.96-5.76-.8-1.569-.917-3.541-1.92-5.52-.879-1.736-3.012-2.886-1.2-5.04 1.311-.29 2.419-.782 3.36-1.44 5.913.473 8.942-1.938 11.28-5.04 1.476.23 2.771-1.676 4.56-1.92-.267-3.867 4.786-2.414 4.561-6.24 .278.039.427-.053.479-.24 1.199.081 1.288,1.272 2.4,1.44 1.73-2.913 6.031-3.102 8.88-1.2 1.209.347 1.649-.871 2.399-.24 .784,1.439-1.729.97-1.199,2.88-1.421-.124-2.867-.348-3.36.96 2.553,1.276 4.812-.108 6.96-.96-.14,1.554.646-.382 1.2.48-.17,1.51-2.063,1.296-1.92,3.12 1.647-.033 1.66-1.7 2.64-2.4 1.355.296 1.533-1.529 2.4-.96-.78,1.26.032,1.498.723.484zm-17.04,30c1.127-.073 1.838-1.571 1.68-2.16-.937.344-1.369,1.191-1.68,2.16zm3.36-32.16c.253-1.374-.87-1.37-1.92-1.44 .12,1.001 1.085,1.155 1.92,1.44zm65.04,1.44c.057-.343.395-.405.479-.72-.324-.075-.458-.341-.96-.24-.066.547.059.902.481.96zm-72.959.72c.597.037.742-.377 1.199-.48 .041-.601-.368-.751-.72-.96 .116.756-.736.543-.479,1.44zm66-.48c.649-.07 1.777.338 1.439-.72-.352-.567-1.853-.271-1.439.72zm15.359.48c.979.551 1.623-.164 1.681-1.2-.592-.416-1.572.384-1.681,1.2zm-23.52,1.44c.457.102.434.686 1.2.479 .021-.896.269-.684 0-1.44-.783-.062-1.155.286-1.2.961zm12,.96c.523-.595-.169-1.428-.721-1.68-.467.539-.128,1.725.721,1.68zm-72.48.72c1.26.442 1.93-1.936.96-2.16-.636.405-1.019,1.061-.96,2.16zm88.56-1.2c.805.005 1.6,0 1.439-.96-.779.019-1.292.307-1.439.96zm-20.16,2.16c.814-1.47-.842-1.857-1.2-2.88-.499.999-.242,3.05 1.2,2.88zm7.92-1.92c-.282-.072-.603-1.271-.96-.48 .423-.069.743,1.131.96.48zm-21.6-.24c.182.859.556,1.525 1.44,1.68-.022-.937-.173-1.747-.96-1.92-.053.187-.201.279-.48.24zm-20.16,2.16c.765.208 1.511-1.63.479-1.68-.2.519-.62.819-.479,1.68zm29.04-.24c.397-.243.261-1.02.479-1.44-.915-.416-1.452,1.495-.479,1.44zm-33.6.48c.938.057.869-.892 1.2-1.44-.699-.673-1.909.705-1.2,1.44zm30.24-.48c.524-.553-.071-1.339-.96-1.2-.062.783.285,1.155.96,1.2zm-53.52.96c.419-.018.747.053.961.24 .035-.595.044-1.165-.48-1.2-.004.477-.656.305-.481.96zm9.6-.24c.876.004 1.078.682 1.68.96 .557-.484-1.408-2.76-1.68-.96zm77.04,1.44c.258-.644.555-1.947-.72-1.68 .009.791-.098,1.699.72,1.68zm-38.16.48c.947-1.377-.814-1.825-1.92-1.92 .326.954 1.299,1.262 1.92,1.92zm3.12-.72c.916.196.929-.511 1.2-.96-.679.198-.622-.338-1.2-.24-.308.315-.308.885 0,1.2zm-35.28.48c.188-.167.534-1.339 0-1.44-.746.385-1.387,1.274 0,1.44zm38.641.48c.911.032 1.132-.628 1.199-1.44-.377-.104-.205-.755-.96-.48-.145.575-.345,1.095-.239,1.92zm18,.72c.186.054.473.006.479.24 1.089-.371 1.758-1.355.96-2.4h-.72c.016.976-.76,1.159-.719,2.16zm-50.881.48c-.286-.673-.39-1.53-1.439-1.44-.168.888.38,1.061 1.2.96-.019.336.052.918.239.48zm17.52.96c.238-.642.494-1.266.479-2.16h-.72c-.315.387-.518,2.114.241,2.16zm-53.04-.72h.72c.03-.601.458-.751-.24-.96-.003.477-.655.305-.48.96zm58.56.72c.49.373 1.592.928 2.16.48 .043-1.403-.624-2.096-1.92-2.16 .117.757-.433.848-.24,1.68zm-57.12.24c1.063-.01 1.206-1.515.24-1.68-.555.147-.667,1.257-.24,1.68zm16.32-.48c-.027-.612-.045-1.235-.72-1.2-.407.403-.191,1.409.72,1.2zm-5.04,1.92c1.753-.129 1.7-2.054.72-2.88 .211,1.411-.851,1.549-.72,2.88zm57.36-.96c.507.213.709.731 1.439.72 .865-.667.355-2.501-.72-2.64-.032.847-.686,1.073-.719,1.92zm-62.4-.72c.618.929 1.17.148 2.16.24 .251-1.659-1.989-1.319-2.16-.24zm4.8.72c.27-.756.022-.543 0-1.44-1.194-.315-1.351,1.834 0,1.44zm-14.64-.24h.48c.269-.346.259-.586-.24-.72 .01.331-.113.527-.24.72zm37.92.72c.7-.213.828-.306 1.2.24-.054-.454.271-.53.24-.96-.745.024-.686-.755-1.681-.48-.198.679.34.622.241,1.2zm-36.24.48c.46-.203.649-1.053.24-1.44h-.72c-.17.566-.551,1.523.48,1.44zm94.32-1.2c-.227,1.32.858,1.594 1.68,1.2 .14-1.407-.629-1.534-1.68-1.2zm-45.36,3.12c1.1-.021.859-1.381 1.2-2.16-.489-.071-.471-.649-.96-.72-.557.587-.63,2.029-.24,2.88zm19.2-1.68c.111-.751-.208-1.071-.96-.96-.306.947.657.623.96.96zm21.6.96c.276-.284.271-.849.239-1.44-.597.037-.742-.377-1.199-.48-.886.653-.284,2.032.96,1.92zm-80.4-.96h.48c-.001-.241.194-.286.239-.48-.307-.013-.332-.308-.72-.24 .001.24.001.48.001.72zm.96,1.2c1.409.308 1.548-1.735.48-1.92-.349.454-1.15,1.18-.48,1.92zm16.32-.48c.214-1.333-.668-1.572-1.92-1.44 .29.83.941,1.299 1.92,1.44zm36.48-.72c.051-.29.267-.148.48,0v-.72h-.72c.038.283-.041.681.24.72zm-8.16.48c.548.067.902-.058.96-.48-.342-.058-.404-.396-.72-.48 .054.454-.271.53-.24.96zm-47.28,1.2c.803-.332 1.056-1.935-.24-1.92-.49.575-.721,1.695.24,1.92zm6.72,0c.694-.106 1.094-.506 1.2-1.2-.566-.074-.446-.833-1.2-.72-.62.455-.299,1.18 0,1.92zm7.2,1.44c.726-1.199.401-2.794-.72-3.36-.447,1.102-.369,3.068.72,3.36zm76.32-1.44c1.504.363 1.134-2.172 0-1.92v1.92zm-107.52,1.2c.58-.541 1.089-1.151.96-2.4-.307-.013-.332-.308-.72-.24-.254.635-1.323,2.163-.24,2.64zm2.16-1.44c.805.165.877-.403.96-.96-.753-.112-.677.604-.96.96zm65.76,1.68c.752-.128.865-.895.96-1.68-.309-.412-.496-.944-1.2-.96-.472.491-.941,2.548.24,2.64zm-45.12.48c.174-.734-.414-.706-.24-1.44-1.439.56-.626-1.134-1.199-1.44-.29.373-.768.936-.24,1.44 .871.167.549,1.531 1.679,1.44zm4.08-2.16c-.319-1.189-1.134-.375 0,0zm74.4.96c.789.249 1.61.249 2.399,0 .228-1.347-.773-1.466-1.68-1.68-.139.661-.597,1.002-.719,1.68zm-92.64-.24c.202-.278.317-.643.24-1.2-.882-.231-.954,1.179-.24,1.2zm9.6.72c1,.12 1.151-.608 1.2-1.44-.355-.125-.605-.355-.96-.48-.393.581-.611,1.166-.24,1.92zm-3.6-.24c.744-.056.749-.852.96-1.44h-.72c.006.565-.413.707-.24,1.44zm46.801.72c.818-.347.963-1.843-.24-1.92-.166.9-.82,1.597.24,1.92zm-37.921-.96c.014-.413-.185-.615-.479-.72-.014.413.184.615.479.72zm-7.44,1.44h.96c.264-.979.101-1.714-.96-1.92-.153.549-.476,1.448 0,1.92zm47.76.96c.636-.511 1.189-2.555 0-2.88 .143.892-1.263,2.427 0,2.88zm25.68-1.2c1.074.423.863-1.271.24-1.2 .098.578-.439.522-.24,1.2zm-76.8-.24h.48c.013-.307.308-.333.24-.72h-.721c.001.24.001.48.001.72zm7.2.72c.419-.221.529-.75.48-1.44h-.721c-.196.174-.643,1.661.241,1.44zm3.84-.72c-.179-1.087.659.367.48-.72-.831-.461-.861,1.444-.48.72zm-23.52,1.44c1.106,1.06 2.477-1.346 1.2-1.92-.333.706-1.172.908-1.2,1.92zm69.6,0c1.724.422 1.854-2.124.24-1.92-.371.349-.211,1.229-.24,1.92zm-51.359-.24c.062-.783-.285-1.155-.961-1.2-.1.82.073,1.368.961,1.2zm36.239,0c-.149-.73-.533-1.227-1.439-1.2-.214,1.076.852,1.667 1.439,1.2zm2.16-.24c.347.374.967.474.72,1.44 .899.019.819-.941.96-1.68-.424-.216-.7-.58-1.199-.72-.004.477-.656.305-.481.96zm48.48,0c.627.068 1.032-.087.96-.72-.331.01-.527-.113-.721-.24-.074.325-.341.459-.239.96zm-84.48,1.44c.322-.478.458-1.143.72-1.68-.477-.003-.305-.655-.96-.48-.159.545-.62,2.013.24,2.16zm-18.48-.48c.882.083.726-.874.96-1.44-.792.009-.918.683-.96,1.44zm97.44,0c.177.687 1.162,1.357 1.92.72v-.72c-.522-.629-1.54-.945-1.92,0zm-77.76,1.44c.138-.501.595-.685.479-1.44-.477-.003-.305-.655-.96-.48-.166.891-.444,1.649.481,1.92zm37.2,1.92c.956.156.688-.913.72-1.68 .611-.252 1.289-1.231.72-1.92h-.72c-.248,1.193-.794,2.086-.72,3.6zm9.36-1.68c-.102-1.105-1.55-2.122-2.399-1.68 .484.876 1.27,1.45 2.399,1.68zm-54.96,1.92c1.475-.206.914-2.446 1.92-3.12 .652.723-.524,1.071-.239,2.16 1.153-.126 1.552-1.008 1.68-2.16-.397-.563-1.4-.52-2.4-.48-.242,1.18-1.346,2.572-.961,3.6zm-1.44-.72c1.51.15 1.305-1.415 1.68-2.4-.324-.075-.458-.341-.96-.24-.352.769-.822,1.418-.72,2.64zm63.6-.48c-1.014-.426-1.157-1.722-2.16-2.16-1.024,1.301 1.212,3.631 2.16,2.16zm-53.04.24c.93.209.393-1.048 1.44-.72 .104-.904-.507-1.093-.96-1.44 .213.732-1.16,1.138-.48,2.16zm-20.4,1.92c.238,1.761.442,3.558 1.439,4.56 .542-1.409-.604-4.599 1.92-4.56 .128,1.233.412,2.308 1.44,2.64-.287-.673-.264-1.656-.24-2.64 .703-.097.973-.627 1.44-.96 .456.503.653,1.266 1.68,1.2 .234-1.766 2.047-1.953 1.92-4.08-3.674.805-6.436,2.522-9.599,3.84zm14.64-1.92c1.02.299.642-.798 1.2-.96 .115.88-.891,2.363.479,2.4 .085-.715.139-1.461.721-1.68-.202.598-.314,1.286-.24,2.16 1.194-.181.856-1.064 1.68,0 .378-1.855-1.686-3.247-3.36-3.84-.237.563-.421,1.179-.48,1.92zm-16.32,1.44c1.328,1.112 3.108-2.998.96-3.12 .166,1.802-.475,1.72-.96,3.12zm63.12-1.44c-.184-.696-.38-1.38-.96-1.68-.719.749-.272,1.671.96,1.68zm-60,.24c.026-.453.794-.167.72-.72-.489-.071-.47-.649-.96-.72-.33.308-.417,1.435.24,1.44zm48.48.48c.812.092.377-1.062 1.439-.72v-.96c-.283-.276-.848-.272-1.439-.24 .39.787-.054.917 0,1.92zm14.64.96c.17-.97-.229-1.37-1.2-1.2-.193.993.368,1.232 1.2,1.2zm22.32.24c.61-.029.931-.349.96-.96-.454.054-.529-.271-.96-.24-.026.597-.45.743 0,1.2zm-63.839,0v-.72h-.721c-.043.524.196.764.721.72zm36.479,3.84c.258-.849 1.221-3.782-.24-4.08-.159.873-.753,3.628.24,4.08zm-4.08-.96c.651-.762.648-2.328-.24-2.88 .368,1.049-.984,2.528.24,2.88zm-28.8.48c.234-.695.143-2.118-.96-2.16-.429.664-.255,2.384.96,2.16zm68.401-.72c-.049-.832-.2-1.56-1.2-1.44 .129.75.571,1.188 1.2,1.44zm-72-.48c-.129-.346.935-.586.239-.72 .028.246-1.035.486-.239.72zm-.241,1.68c.357.442.758.842 1.2,1.2v-2.4c-.308-.013-.333-.308-.721-.24-.137.502-.594.685-.479,1.44zm25.44,1.44c1.306-.054 1.357-1.363 1.92-2.16-.979.295-2.326,1.254-1.92,2.16zm17.28,0c.467-.463.251-1.469-.72-1.2-.114.754.299.981.72,1.2zm-15.12,1.2c.256.544.729.872 1.44.96 .585-.544.711-2.525.479-3.12-1.288.071-1.411,1.308-1.919,2.16zm25.44,1.44c.578-.098.521.438 1.2.24 .366-.75.002-1.188-.721-1.44-.101.458-.685.434-.479,1.2zm-30.24.72c.682-.278 1.425-.495 1.44-1.44-.788-.612-1.467.487-1.44,1.44zm-5.76,0c.542-.376.705-1.586-.48-1.44 .004.637-.133,1.413.48,1.44zm7.68,2.16c.967-.233 1.352-1.049 1.92-1.681-.767-1.119-2.616.657-1.92,1.681zm-22.56-.24c.013-.413-.185-.615-.48-.72-.013.414.185.616.48.72zm-6.24.24c.013-.413-.185-.615-.48-.721-.013.414.184.616.48.721zm31.92.96c.43.309 1.762-.016 1.92-.72-.65-.311-.854-1.067-1.92-.961v1.681zm1.2,1.92c.457.103.434.686 1.2.479 .472-.592.319-2.096-.48-2.159-.108.692-.85.751-.72,1.68zm-6.96.241c1,.264 1-1.705 0-1.44-.269.755-.022.542 0,1.44zm-40.799,1.439c.283-.765 1.706-1.643.96-2.64-.643.425-1.89,2.166-.96,2.64zm44.399-.48c.047-.688.03-1.311-.72-1.2-.407.404-.191,1.409.72,1.2zm16.8.96c.139-.502.596-.686.48-1.44-.307-.013-.333-.308-.72-.24-.127.524-.581,1.552.24,1.68zm-10.56,1.92c-.175-.655.477-.483.479-.96-.146-.014-.284-.036-.239-.24h-.48c-.073.56-.513,1.034.24,1.2zm-10.08,1.44c.92-.128 1.303-.936.96-1.68h-.96c-.476.454-.116,1.134 0,1.68zm1.68,1.44c1.204.164 1.503-.577 1.681-1.44-.907-.671-2.033.097-1.681,1.44zm3.36.24 2.16.479c.475-1.623-2.478-2.442-2.16-.479zm60.96,3.6c.468-.971-.361-1.8-1.68-1.68 .083,1.037.644,1.596 1.68,1.68zm-59.28.481c-.31-.65-.437-1.483-1.2-1.681-.299,1.225.479,2.226 1.2,1.681zm61.92.96c.91-.197.369-1.585-.479-1.44-.393.388-.29,1.506.479,1.44zm-82.8,16.319c-.974.094-.171-1.589-1.439-1.199-.765.653-.349,1.848.479,2.159 1.021-.897 2.535-1.305 4.32-1.439 .954-1.388 2.32-2.077 3.84-3.36 .474-2.006 2.053-2.907 2.64-4.8 1.317-.043 1.325-1.395 2.16-1.92-.739-3.06 1.85-3.795 1.68-6.96-1.062.59-1.135.745-2.399.24 .487,1.203-.089,1.523-.72,2.159-.063.703.542.737.479,1.44-.565-.353-.446-.507-1.2-.24-.345,1.078.816,1.886.24,2.4-.425-.215-.306-.975-1.2-.72 .109,1.148-1.082.998-1.2,1.92-.387-.493-.031-1.729-.96-1.681 .767,1.874.764,5.85-1.68,5.04-.027,2.772-1.493,4.106-3.12,5.28-.005-.715.022-1.462-.72-1.44-.115.756.342.938.479,1.44-1.442-.322-1.057,1.183-1.679,1.681zm17.52-14.16c1.101.3 1.306.088 2.159.721 .267-1.662-2.242-3.299-2.159-.721zm63.84.24c.076-.557-.039-.921-.24-1.2h-.72c-.1.82.073,1.368.96,1.2zm3.6-.48c.158.705.885,1.635 1.44,1.2-.181-.867-.555-1.683-1.44-1.2zm-67.92,2.4c.099-.302.31-.49.72-.479 .22-1.02-.392-1.208-.96-1.44-.641.434-.469,1.576.24,1.919zm-2.88.721c.355.124.604.354.96.479-.005-.715.022-1.462-.72-1.439 .054.453-.27.529-.24.96zm4.08,1.919c.079-.96-.428-1.332-.24-2.4h-.72c-.072,1.192.301,1.94.96,2.4zm59.04-.959c1.186.079.625-1.329-.24-1.2-.099.577.438.521.24,1.2zm-91.679.959c1.593-.087 2.978-.383 3.359-1.681-1.19-.399-3.136.334-3.359,1.681zm-4.081.48c1.599-.125 3.944-.636 3.359-2.16-1.539.301-3.276.403-3.359,2.16zm7.68-.72c1.792.192 2.659-.54 3.36-1.44-1.779-.179-2.883.317-3.36,1.44zm-12.72,4.321c.985-.375 1.384-1.336 1.92-2.16-.359-.666-.981.416-1.2-.24 1.365-.875 3.517-.963 3.84-2.88-3.051.229-4.584,1.975-4.56,5.28zm-.24-3.841c.628.068 1.032-.087.96-.72-.628-.067-1.032.088-.96.72zm10.321,1.68c1.568.939 2.461-.232 3.119-1.44-1.378-.604-2.502.545-3.119,1.44zm30,2.4c.262-1.693.414-3.676-1.2-4.08 .241,1.518.142,3.378 1.2,4.08zm-33.601-2.159c1.932.251 2.989-.371 3.36-1.681-1.831-.15-2.659.701-3.36,1.681zm-4.08.96c1.76-.161 3.073-.768 3.601-2.16-2.15-.23-2.964.876-3.601,2.16zm107.28-.721c-.02.899-.182,1.942.96,1.681-.023-.85-.461-1.052.24-1.44-.317-.003-.22-.421-.48-.479-.04.278-.379.258-.72.238zm-101.76,1.92c1.781.182 2.742-.457 3.12-1.68-1.782-.182-2.743.458-3.12,1.68zm-3.839.48c1.956.196 3.022-.497 3.359-1.92-1.889-.129-2.888.632-3.359,1.92zm44.639.241c1.92.079 2.781-.899 3.36-2.16-2.007-.168-2.734.946-3.36,2.16zm50.88-1.201c.447-.033.802-.158.96-.48-.343-.058-.404-.395-.72-.479-.075.324-.342.457-.24.959zm-99.12,1.68c1.053.263 2.803-.666 3.12-1.92-1.566.113-2.803.558-3.12,1.92zm5.28,1.2c2.015.255 2.791-.729 3.36-1.92-1.372-.508-2.997.636-3.36,1.92zm-3.6.96c1.548-.372 2.869-.972 3.36-2.4-2.069-.306-3.666,1.13-3.36,2.4zm44.4-.24c1.611-.229 2.927-.753 3.36-2.16-1.92-.079-2.781.899-3.36,2.16zm6.96.96c1.462-.493 3.681-1.392 3.36-2.88-1.971-.127-4.17,1.794-3.36,2.88zm-22.08-.96c.186-.164.625-1.43-.24-1.2-.073.56-.512,1.034.24,1.2zm29.52.96c2.32.081 3.977-.502 4.56-2.16-2.039.201-4.307.174-4.56,2.16zm-12.96,1.2c2.546-.094 3.945-1.334 4.8-3.12-2.493.146-4.06,1.22-4.8,3.12zm37.44-2.16c.628.068 1.032-.088.96-.72-.627-.067-1.032.088-.96.72zm3.6-.48c-.454.054-.53-.271-.96-.24-.384.668 1.037.664.96.24zm24.48,2.4c-.116-1.323-.701-2.179-1.68-2.64-.228.8.567,2.407 1.68,2.64zm-106.08-.72c.79-.01 1.195-.405 2.16-.24 .103-.457.517-.603.48-1.2-1.471-.112-2.704.016-2.64,1.44zm2.16,1.441c1.562-.011 2.694-1.556 2.16-2.881-.61.029-.931.35-.96.961 .004.396.666.134.72.479-1.066.054-1.875.365-1.92,1.441zm-5.519-1.201c1.633.193 2.547-.333 2.88-1.44-1.576-.135-2.633.248-2.88,1.44zm51.359.96c1.747-.493 3.812-.669 4.32-2.4-2.088.023-4.636.762-4.32,2.4zm-54.24-.24c1.212-.068 2.352-.209 2.16-1.68-1.047.233-2.384.176-2.16,1.68zm109.44,0c-.041-.679.206-1.646-.48-1.68-.491.519-.082,1.493.48,1.68zm-47.04.481c1.51-.091 2.359-.841 2.88-1.92-1.786-.187-2.135,1.064-2.88,1.92zm-33.6-.241c.01-.729.14-1.58-.721-1.44-.128.849.205,1.236.721,1.44zm20.88,1.201c1.696-.104 3.675-1.069 3.359-2.4-1.665.253-2.925.913-3.359,2.4zm-44.88-.481c.805.234 2.783-.19 2.88-1.439-1.559-.12-2.83.048-2.88,1.439zm52.32.481c1.847-.154 3.642-.358 4.08-1.92-2.129-.13-3.502.498-4.08,1.92zm13.2-.481c1.255-.025 1.91-.65 2.4-1.439-1.34-.061-2.433.127-2.4,1.439zm-6.96,1.2c2.118-.202 4.334-.306 5.04-1.92-2.623-.303-4.011.629-5.04,1.92zm28.08-.24c1.339.406 1.22-1.781.24-1.68-.088.861-.644.879-.24,1.68zm-79.2.96c2.098.024.488-1.44.96-2.399h-.96c-.473.857.111,1.28 0,2.399zm40.32-.48c1.632-.209 3.295-.386 3.6-1.92-1.903-.063-3.355.326-3.6,1.92zm19.44.48c1.649-.351 3.603-.397 3.601-2.399-2.152-.152-3.105.894-3.601,2.399zm-62.64-.96c.729.01 1.58.14 1.44-.72-.325-.075-.459-.342-.96-.24-.125.356-.355.605-.48.96zm50.16,1.44c1.541-.299 2.802-.879 3.12-2.4-1.79.05-2.813.867-3.12,2.4zm-52.32-.96c1.055.095 1.625-.295 1.681-1.2-1.067-.106-1.787.134-1.681,1.2zm10.32-1.2c-.042.012.038.717 0,.72-.438.038-.908-.772-1.44-.24-.288,1.169 1.11.65.721,1.92 1.612.089 2.94-1.373 2.64-2.399-.373.892-1.4-.153-1.921-.001zm4.32.96c1.074.075-.801,2.285.72,2.4 .61-.51.577-1.663.72-2.641-.451-.557-1.11-.463-1.44.241zm45.36,1.68c1.966.046 3.114-.726 3.601-2.16-1.817-.8-2.945,1.015-3.601,2.16zm-52.8-.96c.447-.033.802-.157.96-.479-.457-.104-.603-.518-1.2-.48-.018.417.054.745.24.959zm61.44.72c.881-.078 1.645-.274 2.159-.72-.037-.282.042-.681-.239-.72-.503.616-2.204.036-1.92,1.44zm4.32.24c.348-.058.558-1.975-.239-1.68-.206.2-.659,1.875.239,1.68zm-71.279-.48c.433.362 1.732.137 1.68-.721-.539-.467-1.726-.128-1.68.721zm11.279,2.4c-.141-1.188 1-2.35.48-3.12-.372.695-1.726,2.33-.48,3.12zm-14.16-1.44c1.064.023 1.796-.284 1.921-1.2-1.132-.091-2.062.02-1.921,1.2zm9.12-.24c.612-.027 1.235-.045 1.2-.72-.03-.53-1.018-.103-1.439-.24-.019.418.052.746.239.96zm-2.16,0c.284.276.849.271 1.44.24v-.96c-.863-.143-1.353.086-1.44.72zm-2.88,1.2c.969-.231 2.247-.153 2.16-1.44-1.393-.192-2.192.208-2.16,1.44zm-2.4.48c1.238.118 1.909-.33 1.92-1.439-.894-.597-1.876.424-1.92,1.439zm9.6-.96c-.026-.613-.804-.477-1.439-.479-.576,1.338 1.553,1.698 1.439.479zm8.641.96c-.161-.896.664-1.408-.48-1.439 .003.635-.134,1.412.48,1.439zm-12.241-.239c.32.342 1.359.342 1.68,0 .094-1.218-1.617-1.074-1.68,0zm89.76.239c.787.466 2.349.81 2.16-.72-.907.053-2.164-.244-2.16.72zm-91.44.721c.585-.136 1.235-.206 1.2-.96-.553-.526-1.339.07-1.2.96zm20.881,1.679c.453.054.529-.271.96-.24v-.72c-.283.037-.682-.041-.721.24 .653.455-.639-.418-.239.72zm57.359.48c1.211-.966-.837-1.124 0,0zm-2.88.72c.923-.118 1.941-.139 1.68-1.44-1.288-.298-2.115.771-1.68,1.44zm22.08,1.68c-.2-1.32-.711-2.329-1.44-3.12-.415,1.059.44,2.699 1.44,3.12zm-18.48-1.68v.479c.241-.001.286.194.48.24 .07-.147.597-.924 0-.96-.053.188-.201.28-.48.241zm15.84,1.92c.235-.502.395-1.698-.96-1.681-.114.995 0,1.762.96,1.681z" fill-rule="evenodd"/>
 <path d="m211.44,51.6c.64.501-.678,1.066-1.2,1.2 .168-.633 1.093-.507 1.2-1.2z" fill-rule="evenodd"/>
 <path d="m41.52,93.84c.359-.456-.847-.653-.24-1.68 1.593-.153 2.11.77 2.88,1.44 1.514-.575 3.351.444 3.6,1.92-3.051.186-7.192-.136-11.76-.24-1.093-.747-1.994-1.686-2.4-3.12-.887,1.753-3.089,2.19-5.28,2.64-1.042-.638-1.943-1.417-2.88-2.159-2.586.186-3.927-.873-5.04-2.16-1.473-.193-2.065.494-3.12.72-.657-.783-1.281-1.599-2.16-2.16 .468-1.212 2.638-.722 3.36-1.68-2.708-1.522-5.458,2.164-8.16,1.439 1.01-1.268 2.808-1.647 4.32-2.399 1.493-.743 3.143-1.376 4.32-2.4-3.341-.449-6.257,2.848-9.12,2.88 .167-1.593 2.269-1.251 3.12-2.16-1.537-.62-3.989,1.084-5.76.24 1.072-1.487 3.585-1.534 5.04-2.64-1.3-1.312-4.25.744-5.76,0 .709-1.771 3.631-1.329 4.56-2.88-1.462-.233-5.358.363-7.2-.24 1.065-1.194 3.985-.805 6.24-.72 1.995.075 4.182.586 5.76-.96-2.068-1.158-4.575-.423-6.48.239-.179-.738.659-.461.48-1.199-2.562-.159-5.759.318-7.92-.24 .903-1.793 3.794-.642 5.76-.96 1.605-.26 2.565-1.244 3.6-1.44-.84-.604-3.162-.992-4.32-.479-1.443-1.196-4.769-.512-6.72-1.2 1.381-1.791 4.317.062 6.48,0 1.393-.041 2.382-.614 3.36-1.2-1.029-1.058-2.712-.603-3.84,0-1.19.102-.136-.719-.72-.96-1.466-.613-3.96-.2-5.04-1.2 .8-1.11 2.42-.179 3.6,0 2.362.359 4.465.722 6.48-.239-1.268-.862-3.243-1.137-5.28-1.44-1.837-.276-4.204.029-5.28-1.203 1.499-1.224 3.478.36 5.28.24 1.504-.101 2.561-1.115 3.84-1.44-1.893-.986-5.071-.688-7.2-1.439 .909-1.335 3.057-.475 4.56-.24 2.759.43 5.138,1.49 7.68.24-2.042-1.121-5.549-1.443-8.16-2.161-.822-.227-2.383.177-2.16-1.2 5.86.274 11.149,3.842 16.56,1.68-1.795-.86-4.144-1.233-6.48-1.68-2.379-.454-4.986-.419-6.96-.96-.456-.125-1.185-.135-1.2-.96 7.212.096 12.685,3.116 19.68,2.64-5.255-2.104-12.123-2.597-18-4.079 .901-1.145 2.908-.183 4.08,0 7.51,1.165 14.705,3.004 21.36,5.039 .829-1.475-.958-2.396-1.2-3.6-5.898-.742-11.054-2.227-16.56-3.36 1.126-.928 2.813-.237 4.08,0 3.654.687 8.032,1.953 12,2.641-1.266-4.925-5.377-8.8-5.76-14.64-.287-4.38 1.708-6.67 2.88-10.08 .325-.945.629-2.143.96-3.12 .285-.842-.022-2.508 1.44-2.4-.064,1.06.086,2.099 0,2.88-.418,3.786-2.185,5.46-2.64,8.88-.126.951-.666,1.906-.48,3.6 .453,4.139 3.421,8.243 5.04,12.24 .882,2.179 2.596,4.271 2.88,6 .376,2.29-.158,4.191-.24,6.24-1.007.569-1.137,1.767-1.92,2.641-1.713,1.908-4.562,3.179-5.76,5.04-.104.16-.838,2.25-.72,2.64 .697,2.296 1.998,4.71 3.84,6.72 .417.455 1.027.685 1.44,1.2 2.7,3.374 2.636,7.528 6.48,8.16 .669-.508.166-.697.48-1.44 1.082.356 1.584,1.295 2.4,1.918zm-12.96-29.76c-1.362-.162-1.968.432-3.12.48 .586,1.412 2.584.263 3.12-.48zm-1.2,1.441c2.189.13 3.613,1.026 5.52,1.439 .839-1.013.961-3.616.48-4.8-2.691-.188-4.687-1.072-7.2-1.44 .366,2.995 5.379,1.342 6.48,3.601-2.015-1.053-3.964.199-5.28,1.2zm-9.12-2.401c2.24.734 5.175,1.107 6.48-.72-1.922-.693-5.327-.697-6.48.72zm4.8,1.2c.999.73 2.282-.214 3.36-.48 .768-.189 2.008.304 2.16-.72-2.188-.679-4.489-.454-5.52,1.2zm-10.08.241c2.527.369 5.731,2.231 7.2-.24-2.654-.214-5.449-1.86-7.2.24zm7.2,2.159c1.926.663 2.898-.466 4.56-.72-.738-1.445-4.217-.506-4.56.72zm1.44-1.68c-.598-.659-1.732.174-1.92.72 .597-.282 1.871.111 1.92-.72zm-14.4,1.44c2.688.67 6.609,2.08 8.4-.24-2.481-1.011-6.518-1.877-8.4.24zm16.32.72c1.024,1.837 4.242.494 5.04-.72-1.66-.553-3.449.446-5.04.72zm-9.36.96c1.704,1.218 4.661.438 5.76-.96-2.195-.788-4.011.094-5.76.96zm8.4,3.84c-.666-1.583-3.396-.814-4.08.24 1.231.616 3.133.635 4.08-.24zm-.96.96c1.441-.426 1.846.216 2.4,1.2-.733-.174-.875.245-1.44.24-.231.871 1.079.201.96.96-2.348-.188-3.879.44-4.8,1.68 1.001.438 2.017-.135 2.88.72-.358.362-1.076.364-.96,1.2 1.415.104 3.028.013 3.84.72-2.139.738-5.623-1.312-6.72.961 1.257-.022 2.161-.399 3.6-.24-.25,1.21 1.252.668 1.44,1.439-1.237.044-2.837-.276-2.88.96 1.281,1.332 3.628-.528 4.56.721-2.489.152-4.995.052-6,2.159 1.814-.346 3.439-.881 5.28-1.199 .657,2.039 3.607-.286 4.32,1.199-.216.425-.579.701-.72,1.2 1.997,1.364 3.689,3.03 5.04,5.04 .066-.842.894.603.96-.24-1.201-3.49-3.821-5.194-5.76-8.159-.945-1.446-2.268-3.59-2.4-4.32-1.12-6.18 6.795-7.027 7.44-11.76-2.263-.743-5.22-.565-6.24,1.2 .716.084 1.461.138 1.68.72-.612,1.147-2.078,1.441-3.36,1.92-.154.874 1.143.297 1.2.96-1.117.269-3.558-.851-4.32.719zm-3.84-4.08c1.126,2.017 5.338,1.146 6.24-.479-2.104-.948-4.395-.158-6.24.479zm-7.92.96c1.483.628 3.855.668 4.56-.72-1.497-.234-4.008-.644-4.56.72zm13.2,0c1.279.079 2.148-.252 2.88-.72-.847-.483-2.297.174-2.88.72zm-9.36.721c1.574.781 3.389,1.223 5.28.479-1.121-1.379-3.936-1.777-5.28-.479zm8.88,0c.729,1.682 3.44-.009 4.08-.721-1.702-.102-2.659.542-4.08.721zm-13.2,1.919c1.524.472 4.965,1.053 5.76-.48-1.891-.727-4.513-1.091-5.76.48zm6,.96c.966.506 3.036.833 3.36-.48-1.15-.198-2.996-1.072-3.36.48zm4.56.72c.623.182 1.587.742 2.16.24 .187-1.146-1.972-.816-2.16-.24zm-10.08,1.441c2.29.942 4.357-.21 6-1.2-2.14-.856-4.943-.354-6,1.2zm4.56.719c2.375.688 4.853.499 6-1.2-2.233-.753-4.846-.374-6,1.2zm2.4,1.68c.413.013.615-.185.72-.479-.413-.014-.615.184-.72.479zm.48.72c.904-.185 1.147.293 1.92.24 .102-.458.686-.435.48-1.2-.933.186-2.049.191-2.4.96zm-7.2,2.64c2.909-.052 5.857-.063 6.96-1.92-3.199-.239-5.23.69-6.96,1.92zm10.32-.24c-.147-.07-.924-.597-.96,0 .147.07.924.597.96,0zm-9.84,3.12c3.636-.124 6.919-.602 8.64-2.64-3.511.25-6.46,1.06-8.64,2.64z" fill-rule="evenodd"/>
 <path d="m279.84,96.96c.517-.08-1.708,1.568 0,0z" fill-rule="evenodd"/>
 <path d="m139.92,64.32c-1.895-1.528-3.423-4.711-6.48-5.28-1.839-.343-3.801.248-5.52,1.44 2.065,1.268 4.117.045 6,.479 .891.206 4.387,3.15 5.28,4.08 1.811,1.885 3.154,4.869 4.32,7.44 .989.188.451-1.149 1.44-.96-.028.963-1.482,1.402-.72,2.399 1.442.002.985-1.895 1.92-2.399 .795.733-.799,1.107-.48,2.159 1.487.127.891-1.829 1.92-2.159 .678.539-.395,1.35-.48,1.92 1.983.543 1.265-1.615 2.64-1.681 .039.76-.638.803-.48,1.681 2.055.374 1.245-2.115 2.88-2.16-.033.847-.687,1.073-.72,1.92 1.69.25 1.194-1.687 2.16-2.16 .72.659-.344,1.562-.48,2.16 1.338.976 1.412-1.06 2.16-1.44 .834.54-.804,1.35 0,1.92 1.427.308.713-1.526 1.92-1.439 .199.861-.541,1.161 0,1.68 1.065.186.966-.794 1.44-1.2 1.029.188-.217,1.161.48,1.681 1.065.186.966-.794 1.44-1.2 .775.229-.147,1.425.96,1.68 1.095-.024.5-1.739 1.68-1.68 .073,1.048-.71,1.067-.24,1.92 1.512.392.982-1.258 2.16-1.2-.023.681-1.045,1.588 0,1.92 1.222.102.416-1.824 1.681-1.68 .218,1.144-1.266,1.439-.48,2.4 1.643.282.576-2.145 2.16-1.92-.037,1.091-1.419,1.817-.72,2.88 1.264.144.459-1.781 1.68-1.681 .121,1.001-.701,1.059-.479,2.16 .421.711.498-.919 1.199-.72-.286,1.073-.111,2.607-1.199,2.88 .216-.703.216-.737 0-1.44-.478.004-.306.655-.96.48v-.96c-1.674-.646-3.154-1.485-5.041-1.92 .922,1.238 2.516,1.804 3.84,2.64 .602,1.238 1.655,2.024 2.64,2.88 .062.738.521,1.08.72,1.681 1.733-.107.94-2.74 1.921-3.601 1.142.114-.289,1.132 0,1.92 .526.821.983-1.17 1.68-.239 .127,1.885-2.063,2.32-3.36,3.119-5.436,3.351-12.017,6.783-17.76,10.08 .562.435 1.555-.788 2.16.24-.435,1.586-.477,2.277.24,3.601 1.999-.112 3.183-2.215 5.04-1.681-.135,1.145-1.622.938-1.92,1.92 2.198-.121 2.905-1.735 5.28-1.68 .418,1.667-.966.886-1.68,1.2-2.531,1.115-5.202,2.888-7.92,3.84-.667.133-.672.928-.96,1.439-.603-.677-1.668-.891-2.16-1.68-1.144.492-1.702.392-2.64-.24 .024-.615.895-.386 1.2-.72-1.601-.267-.355-.211 0-1.439-.987-.416-1.566,1.407-2.88,1.439-.004-1.284 1.213-1.348 2.16-1.68-.603-1.059-2.099.434-2.64.96-.892-.239-.627-.513-1.68-.24 .586-1.653 2.353-2.127 3.6-3.12 .322-.718.462-1.617 1.44-1.68 .269-.756.021-.544 0-1.44 5.549-3.33 11.593-6.167 17.52-9.12-1.51-1.894-1.601-4.003-2.88-5.76-.424-.581-.994-.802-1.92-1.439-.539-.372-1.199-1.223-1.68-1.44-.758-.342-3.692-1.05-4.56-1.2-3.821-.662-7.037-.005-10.8.24-.287,1.036.787,1.346.24,1.92-1.124.004-.911-1.329-1.44-1.92-1.736-.024-2.991-.529-4.56-.72 .575,2.306 5.332,2.507 6.96,4.56 .104,1.495.894,2.307.96,3.84-1.263,1.407-2.77-.729-4.08-2.159-2.137-2.335-4.553-5.334-7.44-6.721 .154-1.594-1.278-1.602-1.68-2.64 .144-.959-1.145-2.412-.72-3.601 .982.007.898,1.485 1.2,2.16 .326.729 1.248,1.338.72,1.92 2.221,1.06 4.65,1.91 7.92,1.92-.848-2.271-1.934-4.306-2.88-6.479-2.931-1.709-5.428-3.853-8.4-5.521-1.721.201-2.689-.351-3.84-.72-1.255.345-1.645,1.555-2.16,2.641 .396,1.363 2.367,1.152 2.64,2.64-1.554-.046-1.771-1.429-2.88-1.92-3.21,2.317-2.05,10.088 2.4,11.04 2.673.571 4.769-.842 6.48-.96-.779,2.688-5.792,2.622-9.12,3.12-1.489.222-2.668.986-3.84,0-1.12-.943-2.305-3.246-2.88-4.801 .482-.877 1.834-.885 1.92-2.159 .592-.032 1.156-.037 1.44.239-.414-3.613 1.308-5.092 2.16-7.439-.096-1.024-1.72-.52-1.44-1.92 2.128-1.073 5.978-1.7 6.96-3.12 4.163-.796 10.328.483 10.318,6zm-16.08-2.88c-.037.597.377.743.48,1.2 1.123.002 1.452-.789 1.68-1.681-.983-.102-1.538.224-2.16.481zm29.76,40.081c.828-.213 2.019-.062 1.92-1.2-.986.053-1.484.594-1.92,1.2zm1.92-2.401c-1.073.479-1.108.373-2.16,0 .654,1.039-.801.591-.72,1.68 .991.348 2.588-.552 2.88-1.68z" fill-rule="evenodd"/>
</svg>
